<svg width="246" height="346" viewBox="0 0 246 346" fill="none" xmlns="http://www.w3.org/2000/svg">
    <g opacity="0.3">
        <line x1="103.833" y1="309.81" x2="97.4617" y2="313.647" stroke="url(#paint0_linear)" stroke-linecap="round"/>
    </g>
    <g opacity="0.3">
        <line x1="105.308" y1="305.334" x2="76.3302" y2="289.953" stroke="url(#paint1_linear)" stroke-linecap="round"/>
    </g>
    <g opacity="0.3">
        <line x1="167.366" y1="299.159" x2="112.014" y2="305.535" stroke="url(#paint2_linear)" stroke-linecap="round"/>
    </g>
    <g opacity="0.3">
        <line x1="148.981" y1="309.841" x2="110.137" y2="307.58" stroke="url(#paint3_linear)" stroke-linecap="round"/>
    </g>
    <mask id="mask0" style="mask-type:alpha" maskUnits="userSpaceOnUse" x="166" y="296" width="6" height="6">
        <circle cx="169.102" cy="299.153" r="2.69791" transform="rotate(20.7486 169.102 299.153)" fill="#5CA4A9"/>
    </mask>
    <g mask="url(#mask0)">
        <path d="M172.58 297.586L167.534 295.674L165.623 300.72L170.669 302.632L172.58 297.586Z" fill="#D76969"/>
    </g>
    <mask id="mask1" style="mask-type:alpha" maskUnits="userSpaceOnUse" x="144" y="305" width="10" height="10">
        <circle r="4.55492" transform="matrix(-0.935144 -0.354267 -0.354267 0.935144 149.086 309.909)" fill="#5CA4A9"/>
    </mask>
    <g mask="url(#mask1)">
        <path d="M146.44 304.036L154.959 307.263L151.732 315.782L143.212 312.555L146.44 304.036Z" fill="#D79D69"/>
    </g>
    <mask id="mask2" style="mask-type:alpha" maskUnits="userSpaceOnUse" x="95" y="312" width="4" height="4">
        <circle r="1.40761" transform="matrix(-0.935144 -0.354267 -0.354267 0.935144 96.6092 313.916)" fill="#5CA4A9"/>
    </mask>
    <g mask="url(#mask2)">
        <path d="M95.7916 312.101L98.4242 313.098L97.4269 315.731L94.7943 314.733L95.7916 312.101Z" fill="#D76969"/>
    </g>
    <mask id="mask3" style="mask-type:alpha" maskUnits="userSpaceOnUse" x="69" y="284" width="10" height="10">
        <circle cx="73.9626" cy="288.788" r="4.69202" transform="rotate(20.7486 73.9626 288.788)" fill="#5CA4A9"/>
    </mask>
    <g mask="url(#mask3)">
        <path d="M80.0126 286.063L71.2372 282.738L67.9127 291.514L76.6881 294.838L80.0126 286.063Z" fill="#EABA82"/>
    </g>
    <g filter="url(#filter0_f)">
        <circle cx="107.882" cy="301.378" r="3.75362" transform="rotate(20.7486 107.882 301.378)" fill="#5CA97B"/>
    </g>
    <mask id="mask4" style="mask-type:alpha" maskUnits="userSpaceOnUse" x="102" y="300" width="15" height="15">
        <circle cx="109.164" cy="307.139" r="7.00083" transform="rotate(20.7486 109.164 307.139)" fill="#5CA4A9"/>
    </mask>
    <g mask="url(#mask4)">
        <path d="M118.191 303.072L105.097 298.112L100.137 311.206L113.23 316.166L118.191 303.072Z" fill="#5CA97B"/>
    </g>
    <g opacity="0.3">
        <line x1="170.834" y1="77.4709" x2="153.264" y2="109.299" stroke="url(#paint4_linear)" stroke-linecap="round"/>
    </g>
    <g opacity="0.3">
        <line x1="109.547" y1="104.528" x2="49.6232" y2="87.8678" stroke="url(#paint5_linear)" stroke-linecap="round"/>
    </g>
    <g opacity="0.3">
        <line x1="151.512" y1="53.7837" x2="110.532" y2="104.142" stroke="url(#paint6_linear)" stroke-linecap="round"/>
    </g>
    <g opacity="0.3">
        <line x1="103.158" y1="52.0565" x2="110.587" y2="103.614" stroke="url(#paint7_linear)" stroke-linecap="round"/>
    </g>
    <g opacity="0.3">
        <line x1="20.3979" y1="94.5973" x2="47.2584" y2="86.9139" stroke="url(#paint8_linear)" stroke-linecap="round"/>
    </g>
    <mask id="mask5" style="mask-type:alpha" maskUnits="userSpaceOnUse" x="143" y="44" width="16" height="16">
        <circle cx="151.291" cy="51.5877" r="7.5" transform="rotate(-5.69727 151.291 51.5877)" fill="#5CA4A9"/>
    </mask>
    <g mask="url(#mask5)">
        <path d="M158.009 43.3802L143.083 44.8693L144.572 59.7952L159.498 58.3061L158.009 43.3802Z" fill="#D76969"/>
    </g>
    <mask id="mask6" style="mask-type:alpha" maskUnits="userSpaceOnUse" x="100" y="49" width="5" height="5">
        <circle r="2.07111" transform="matrix(-0.99506 0.0992723 0.0992723 0.99506 102.633 51.9197)" fill="#5CA4A9"/>
    </mask>
    <g mask="url(#mask6)">
        <path d="M100.366 50.0645L104.488 49.6533L104.899 53.775L100.778 54.1862L100.366 50.0645Z" fill="#D79D69"/>
    </g>
    <mask id="mask7" style="mask-type:alpha" maskUnits="userSpaceOnUse" x="150" y="108" width="5" height="5">
        <circle r="2.01965" transform="matrix(-0.99506 0.0992723 0.0992723 0.99506 152.659 110.242)" fill="#5CA4A9"/>
    </mask>
    <g mask="url(#mask7)">
        <path d="M150.449 108.432L154.469 108.031L154.87 112.051L150.85 112.452L150.449 108.432Z" fill="#D76969"/>
    </g>
    <g filter="url(#filter1_f)">
        <circle cx="110.163" cy="104.181" r="5.38572" transform="rotate(-5.69727 110.163 104.181)" fill="#5CA97B"/>
    </g>
    <mask id="mask8" style="mask-type:alpha" maskUnits="userSpaceOnUse" x="104" y="98" width="12" height="12">
        <circle cx="110.163" cy="104.181" r="5.38572" transform="rotate(-5.69727 110.163 104.181)" fill="#5CA4A9"/>
    </mask>
    <g mask="url(#mask8)">
        <path d="M114.988 98.2868L104.269 99.3561L105.339 110.074L116.057 109.005L114.988 98.2868Z" fill="#5CA97B"/>
    </g>
    <mask id="mask9" style="mask-type:alpha" maskUnits="userSpaceOnUse" x="42" y="83" width="10" height="10">
        <circle cx="47.1378" cy="87.8159" r="4.46755" transform="rotate(-5.69727 47.1378 87.8159)" fill="#5CA4A9"/>
    </mask>
    <g mask="url(#mask9)">
        <path d="M51.1398 82.927L42.2488 83.814L43.1358 92.7049L52.0268 91.8179L51.1398 82.927Z" fill="#EABA82"/>
    </g>
    <g opacity="0.3">
        <line x1="181.898" y1="74.1691" x2="192.729" y2="71.7082" stroke="url(#paint9_linear)" stroke-linecap="round"/>
    </g>
    <g opacity="0.3">
        <line x1="177.72" y1="79.1815" x2="226.06" y2="111.146" stroke="url(#paint10_linear)" stroke-linecap="round"/>
    </g>
    <g opacity="0.3">
        <line x1="90.4493" y1="60.0321" x2="169.163" y2="76.313" stroke="url(#paint11_linear)" stroke-linecap="round"/>
    </g>
    <g opacity="0.3">
        <line x1="120.277" y1="53.6948" x2="172.593" y2="74.3956" stroke="url(#paint12_linear)" stroke-linecap="round"/>
    </g>
    <mask id="mask10" style="mask-type:alpha" maskUnits="userSpaceOnUse" x="84" y="55" width="9" height="8">
        <circle cx="88.3387" cy="59.0907" r="3.87099" transform="rotate(-140.994 88.3387 59.0907)" fill="#5CA4A9"/>
    </mask>
    <g mask="url(#mask10)">
        <path d="M82.8942 59.6623L88.9103 64.5352L93.7832 58.519L87.767 53.6462L82.8942 59.6623Z" fill="#D76969"/>
    </g>
    <mask id="mask11" style="mask-type:alpha" maskUnits="userSpaceOnUse" x="113" y="46" width="14" height="14">
        <circle r="6.53544" transform="matrix(0.777079 0.629404 0.629404 -0.777079 120.447 53.4323)" fill="#5CA4A9"/>
    </mask>
    <g mask="url(#mask11)">
        <path d="M121.412 62.6243L111.255 54.3974L119.482 44.2403L129.639 52.4672L121.412 62.6243Z" fill="#D79D69"/>
    </g>
    <mask id="mask12" style="mask-type:alpha" maskUnits="userSpaceOnUse" x="191" y="69" width="5" height="5">
        <circle r="2.01965" transform="matrix(0.777079 0.629404 0.629404 -0.777079 193.751 71.5618)" fill="#5CA4A9"/>
    </mask>
    <g mask="url(#mask12)">
        <path d="M194.049 74.4024L190.91 71.86L193.453 68.7212L196.592 71.2635L194.049 74.4024Z" fill="#D76969"/>
    </g>
    <mask id="mask13" style="mask-type:alpha" maskUnits="userSpaceOnUse" x="220" y="106" width="14" height="15">
        <circle cx="227.132" cy="113.348" r="6.73215" transform="rotate(-140.994 227.132 113.348)" fill="#5CA4A9"/>
    </mask>
    <g mask="url(#mask13)">
        <path d="M217.663 114.342L228.126 122.816L236.6 112.354L226.137 103.879L217.663 114.342Z" fill="#EABA82"/>
    </g>
    <g filter="url(#filter2_f)">
        <circle cx="172.755" cy="83.5786" r="5.38572" transform="rotate(-140.994 172.755 83.5786)" fill="#5CA97B"/>
    </g>
    <mask id="mask14" style="mask-type:alpha" maskUnits="userSpaceOnUse" x="163" y="65" width="21" height="21">
        <circle cx="173.598" cy="75.1521" r="10.0449" transform="rotate(-140.994 173.598 75.1521)" fill="#5CA4A9"/>
    </mask>
    <g mask="url(#mask14)">
        <path d="M159.47 76.6355L175.082 89.28L187.726 73.6688L172.115 61.0242L159.47 76.6355Z" fill="#5CA97B"/>
    </g>
    <g opacity="0.3">
        <line x1="68.0493" y1="74.8802" x2="68.6674" y2="57.5262" stroke="url(#paint13_linear)" stroke-linecap="round"/>
    </g>
    <g opacity="0.3">
        <line x1="69.0439" y1="74.9107" x2="117.28" y2="76.1512" stroke="url(#paint14_linear)" stroke-linecap="round"/>
    </g>
    <g opacity="0.3">
        <line x1="60.9604" y1="113.244" x2="67.9364" y2="81.1493" stroke="url(#paint15_linear)" stroke-linecap="round"/>
    </g>
    <mask id="mask15" style="mask-type:alpha" maskUnits="userSpaceOnUse" x="58" y="110" width="7" height="7">
        <circle cx="61.3428" cy="113.69" r="3.0168" transform="rotate(160.238 61.3428 113.69)" fill="#5CA4A9"/>
    </mask>
    <g mask="url(#mask15)">
        <path d="M59.5236 117.549L65.2019 115.509L63.1619 109.831L57.4836 111.871L59.5236 117.549Z" fill="#D76969"/>
    </g>
    <mask id="mask16" style="mask-type:alpha" maskUnits="userSpaceOnUse" x="13" y="90" width="11" height="11">
        <circle r="5.0933" transform="matrix(0.941108 -0.338107 -0.338107 -0.941108 18.1399 95.2155)" fill="#5CA4A9"/>
    </mask>
    <g mask="url(#mask16)">
        <path d="M24.6553 98.2868L15.0686 101.731L11.6244 92.1443L21.2111 88.7001L24.6553 98.2868Z" fill="#D66A6A"/>
    </g>
    <mask id="mask17" style="mask-type:alpha" maskUnits="userSpaceOnUse" x="67" y="54" width="4" height="5">
        <circle r="1.57398" transform="matrix(0.941108 -0.338107 -0.338107 -0.941108 69.0075 56.5506)" fill="#5CA4A9"/>
    </mask>
    <g mask="url(#mask17)">
        <path d="M71.0209 57.4997L68.0583 58.564L66.994 55.6015L69.9566 54.5371L71.0209 57.4997Z" fill="#D76969"/>
    </g>
    <mask id="mask18" style="mask-type:alpha" maskUnits="userSpaceOnUse" x="112" y="71" width="12" height="11">
        <circle cx="117.804" cy="76.6506" r="5.24661" transform="rotate(160.238 117.804 76.6506)" fill="#5CA4A9"/>
    </mask>
    <g mask="url(#mask18)">
        <path d="M114.64 83.3621L124.515 79.8143L120.968 69.939L111.092 73.4869L114.64 83.3621Z" fill="#EABA82"/>
    </g>
    <g filter="url(#filter3_f)">
        <circle cx="68.5311" cy="75.3977" r="4.19729" transform="rotate(160.238 68.5311 75.3977)" fill="#5CA97B"/>
    </g>
    <mask id="mask19" style="mask-type:alpha" maskUnits="userSpaceOnUse" x="60" y="68" width="17" height="16">
        <circle cx="68.6494" cy="75.9057" r="7.82831" transform="rotate(160.238 68.6494 75.9057)" fill="#5CA4A9"/>
    </mask>
    <g mask="url(#mask19)">
        <path d="M63.929 85.9198L78.6635 80.6262L73.3699 65.8916L58.6354 71.1852L63.929 85.9198Z" fill="#5CA97B"/>
    </g>
    <defs>
        <filter id="filter0_f" x="64.1271" y="257.623" width="87.5093" height="87.5093" filterUnits="userSpaceOnUse" color-interpolation-filters="sRGB">
            <feFlood flood-opacity="0" result="BackgroundImageFix"/>
            <feBlend mode="normal" in="SourceGraphic" in2="BackgroundImageFix" result="shape"/>
            <feGaussianBlur stdDeviation="20" result="effect1_foregroundBlur"/>
        </filter>
        <filter id="filter1_f" x="64.7769" y="58.7945" width="90.7722" height="90.7722" filterUnits="userSpaceOnUse" color-interpolation-filters="sRGB">
            <feFlood flood-opacity="0" result="BackgroundImageFix"/>
            <feBlend mode="normal" in="SourceGraphic" in2="BackgroundImageFix" result="shape"/>
            <feGaussianBlur stdDeviation="20" result="effect1_foregroundBlur"/>
        </filter>
        <filter id="filter2_f" x="127.37" y="38.1927" width="90.7718" height="90.7718" filterUnits="userSpaceOnUse" color-interpolation-filters="sRGB">
            <feFlood flood-opacity="0" result="BackgroundImageFix"/>
            <feBlend mode="normal" in="SourceGraphic" in2="BackgroundImageFix" result="shape"/>
            <feGaussianBlur stdDeviation="20" result="effect1_foregroundBlur"/>
        </filter>
        <filter id="filter3_f" x="24.3327" y="31.1993" width="88.3969" height="88.3969" filterUnits="userSpaceOnUse" color-interpolation-filters="sRGB">
            <feFlood flood-opacity="0" result="BackgroundImageFix"/>
            <feBlend mode="normal" in="SourceGraphic" in2="BackgroundImageFix" result="shape"/>
            <feGaussianBlur stdDeviation="20" result="effect1_foregroundBlur"/>
        </filter>
        <linearGradient id="paint0_linear" x1="103.488" y1="308.267" x2="96.2595" y2="312.62" gradientUnits="userSpaceOnUse">
            <stop stop-color="#D76969"/>
            <stop offset="0.248451" stop-color="#D79C69"/>
            <stop offset="0.482" stop-color="#E9B880"/>
            <stop offset="0.766226" stop-color="#D2D65A"/>
            <stop offset="1" stop-color="#60AB8B"/>
        </linearGradient>
        <linearGradient id="paint1_linear" x1="106.453" y1="304.244" x2="76.5918" y2="288.394" gradientUnits="userSpaceOnUse">
            <stop stop-color="#D76969"/>
            <stop offset="0.248451" stop-color="#D79C69"/>
            <stop offset="0.482" stop-color="#E9B880"/>
            <stop offset="0.766226" stop-color="#D2D65A"/>
            <stop offset="1" stop-color="#60AB8B"/>
        </linearGradient>
        <linearGradient id="paint2_linear" x1="167.691" y1="297.611" x2="111.345" y2="304.102" gradientUnits="userSpaceOnUse">
            <stop stop-color="#D76969"/>
            <stop offset="0.248451" stop-color="#D79C69"/>
            <stop offset="0.482" stop-color="#E9B880"/>
            <stop offset="0.766226" stop-color="#D2D65A"/>
            <stop offset="1" stop-color="#60AB8B"/>
        </linearGradient>
        <linearGradient id="paint3_linear" x1="149.567" y1="308.372" x2="109.725" y2="306.054" gradientUnits="userSpaceOnUse">
            <stop stop-color="#D76969"/>
            <stop offset="0.248451" stop-color="#D79C69"/>
            <stop offset="0.482" stop-color="#E9B880"/>
            <stop offset="0.766226" stop-color="#D2D65A"/>
            <stop offset="1" stop-color="#60AB8B"/>
        </linearGradient>
        <linearGradient id="paint4_linear" x1="169.763" y1="76.3083" x2="151.71" y2="109.012" gradientUnits="userSpaceOnUse">
            <stop stop-color="#D76969"/>
            <stop offset="0.248451" stop-color="#D79C69"/>
            <stop offset="0.482" stop-color="#E9B880"/>
            <stop offset="0.766226" stop-color="#D2D65A"/>
            <stop offset="1" stop-color="#60AB8B"/>
        </linearGradient>
        <linearGradient id="paint5_linear" x1="110.431" y1="103.217" x2="49.5432" y2="86.2887" gradientUnits="userSpaceOnUse">
            <stop stop-color="#D76969"/>
            <stop offset="0.248451" stop-color="#D79C69"/>
            <stop offset="0.482" stop-color="#E9B880"/>
            <stop offset="0.766226" stop-color="#D2D65A"/>
            <stop offset="1" stop-color="#60AB8B"/>
        </linearGradient>
        <linearGradient id="paint6_linear" x1="150.664" y1="52.4491" x2="109.053" y2="103.583" gradientUnits="userSpaceOnUse">
            <stop stop-color="#D76969"/>
            <stop offset="0.248451" stop-color="#D79C69"/>
            <stop offset="0.482" stop-color="#E9B880"/>
            <stop offset="0.766226" stop-color="#D2D65A"/>
            <stop offset="1" stop-color="#60AB8B"/>
        </linearGradient>
        <linearGradient id="paint7_linear" x1="101.602" y1="51.7756" x2="109.173" y2="104.323" gradientUnits="userSpaceOnUse">
            <stop stop-color="#D76969"/>
            <stop offset="0.248451" stop-color="#D79C69"/>
            <stop offset="0.482" stop-color="#E9B880"/>
            <stop offset="0.766226" stop-color="#D2D65A"/>
            <stop offset="1" stop-color="#60AB8B"/>
        </linearGradient>
        <linearGradient id="paint8_linear" x1="20.3297" y1="96.177" x2="48.1517" y2="88.2186" gradientUnits="userSpaceOnUse">
            <stop stop-color="#D76969"/>
            <stop offset="0.248451" stop-color="#D79C69"/>
            <stop offset="0.482" stop-color="#E9B880"/>
            <stop offset="0.766226" stop-color="#D2D65A"/>
            <stop offset="1" stop-color="#60AB8B"/>
        </linearGradient>
        <linearGradient id="paint9_linear" x1="181.743" y1="75.7426" x2="193.549" y2="73.0601" gradientUnits="userSpaceOnUse">
            <stop stop-color="#D76969"/>
            <stop offset="0.248451" stop-color="#D79C69"/>
            <stop offset="0.482" stop-color="#E9B880"/>
            <stop offset="0.766226" stop-color="#D2D65A"/>
            <stop offset="1" stop-color="#60AB8B"/>
        </linearGradient>
        <linearGradient id="paint10_linear" x1="176.475" y1="80.1569" x2="225.65" y2="112.673" gradientUnits="userSpaceOnUse">
            <stop stop-color="#D76969"/>
            <stop offset="0.248451" stop-color="#D79C69"/>
            <stop offset="0.482" stop-color="#E9B880"/>
            <stop offset="0.766226" stop-color="#D2D65A"/>
            <stop offset="1" stop-color="#60AB8B"/>
        </linearGradient>
        <linearGradient id="paint11_linear" x1="89.6558" y1="61.3998" x2="169.349" y2="77.8832" gradientUnits="userSpaceOnUse">
            <stop stop-color="#D76969"/>
            <stop offset="0.248451" stop-color="#D79C69"/>
            <stop offset="0.482" stop-color="#E9B880"/>
            <stop offset="0.766226" stop-color="#D2D65A"/>
            <stop offset="1" stop-color="#60AB8B"/>
        </linearGradient>
        <linearGradient id="paint12_linear" x1="119.26" y1="54.9056" x2="172.506" y2="75.9744" gradientUnits="userSpaceOnUse">
            <stop stop-color="#D76969"/>
            <stop offset="0.248451" stop-color="#D79C69"/>
            <stop offset="0.482" stop-color="#E9B880"/>
            <stop offset="0.766226" stop-color="#D2D65A"/>
            <stop offset="1" stop-color="#60AB8B"/>
        </linearGradient>
        <linearGradient id="paint13_linear" x1="69.5305" y1="75.4333" x2="70.1842" y2="57.0799" gradientUnits="userSpaceOnUse">
            <stop stop-color="#D76969"/>
            <stop offset="0.248451" stop-color="#D79C69"/>
            <stop offset="0.482" stop-color="#E9B880"/>
            <stop offset="0.766226" stop-color="#D2D65A"/>
            <stop offset="1" stop-color="#60AB8B"/>
        </linearGradient>
        <linearGradient id="paint14_linear" x1="68.5055" y1="76.3974" x2="117.741" y2="77.6635" gradientUnits="userSpaceOnUse">
            <stop stop-color="#D76969"/>
            <stop offset="0.248451" stop-color="#D79C69"/>
            <stop offset="0.482" stop-color="#E9B880"/>
            <stop offset="0.766226" stop-color="#D2D65A"/>
            <stop offset="1" stop-color="#60AB8B"/>
        </linearGradient>
        <linearGradient id="paint15_linear" x1="62.32" y1="114.052" x2="69.5083" y2="80.9793" gradientUnits="userSpaceOnUse">
            <stop stop-color="#D76969"/>
            <stop offset="0.248451" stop-color="#D79C69"/>
            <stop offset="0.482" stop-color="#E9B880"/>
            <stop offset="0.766226" stop-color="#D2D65A"/>
            <stop offset="1" stop-color="#60AB8B"/>
        </linearGradient>
    </defs>
</svg>
