<svg width="40" height="40" viewBox="0 0 40 40" fill="none" xmlns="http://www.w3.org/2000/svg">
<path d="M30.4 1.59998H9.59998C5.1817 1.59998 1.59998 5.1817 1.59998 9.59998V30.4C1.59998 34.8183 5.1817 38.4 9.59998 38.4H30.4C34.8183 38.4 38.4 34.8183 38.4 30.4V9.59998C38.4 5.1817 34.8183 1.59998 30.4 1.59998Z" fill="white"/>
<path fill-rule="evenodd" clip-rule="evenodd" d="M26.5754 10.7431H23.4704C22.373 10.7431 22.1442 11.1936 22.1442 12.3287V15.069H26.5754L26.1499 19.8792H22.1442V34.251H16.4078V19.94H13.4227V15.069H16.4078V11.2311C16.4078 7.63102 18.3331 5.75053 22.6018 5.75053H26.5754V10.7431ZM39.9998 7.22525C39.5118 3.46069 36.5642 0.500512 32.8014 0H7.30747C3.18898 0.548776 0 4.03627 0 8.30314V31.5822C0 36.2299 3.76635 39.9963 8.41576 39.9963H31.6931C35.9725 39.9963 39.4654 36.7912 39.9998 32.6602V7.22525Z" fill="#373D4C"/>
</svg>
