<svg width="24" height="24" viewBox="0 0 24 24" fill="none" xmlns="http://www.w3.org/2000/svg">
  <path d="M12.3906 22.625C13.2344 22.625 13.9141 21.9922 13.9141 21.1484V11.2227C15.0391 10.6602 15.8008 9.5 15.8008 8.17578C15.8008 6.83984 15.0391 5.69141 13.9141 5.12891V2.10547C13.9141 1.28516 13.2109 0.640625 12.3906 0.640625C11.6055 0.640625 10.8672 1.29688 10.8672 2.10547V5.11719C9.74219 5.67969 8.98047 6.83984 8.98047 8.17578C8.98047 9.48828 9.74219 10.6484 10.8672 11.2227V21.1484C10.8672 21.9805 11.582 22.625 12.3906 22.625ZM17.125 15.1367C17.125 16.4609 17.8984 17.6211 19.0117 18.1836V21.1602C19.0117 21.9805 19.7266 22.625 20.5352 22.625C21.3789 22.625 22.0703 21.9922 22.0703 21.1602V18.1836C23.1836 17.6211 23.957 16.4727 23.957 15.1367C23.957 13.8125 23.1836 12.6523 22.0703 12.0898V2.11719C22.0703 1.28516 21.3555 0.640625 20.5352 0.640625C19.75 0.640625 19.0117 1.29688 19.0117 2.11719V12.0898C17.8984 12.6523 17.125 13.8125 17.125 15.1367ZM0.824219 15.1367C0.824219 16.4727 1.59766 17.6211 2.71094 18.1836V21.1602C2.71094 21.9805 3.42578 22.625 4.23438 22.625C5.07812 22.625 5.76953 21.9922 5.76953 21.1602V18.1836C6.88281 17.6328 7.65625 16.4727 7.65625 15.1367C7.65625 13.8125 6.88281 12.6523 5.76953 12.0898V2.11719C5.76953 1.28516 5.05469 0.640625 4.23438 0.640625C3.44922 0.640625 2.71094 1.29688 2.71094 2.11719V12.0898C1.59766 12.6523 0.824219 13.8125 0.824219 15.1367ZM10.8438 8.17578C10.8438 7.32031 11.5352 6.62891 12.3906 6.62891C13.2695 6.62891 13.9375 7.32031 13.9375 8.17578C13.9375 9.05469 13.2695 9.72266 12.3906 9.72266C11.5352 9.72266 10.8438 9.05469 10.8438 8.17578ZM18.9883 15.1367C18.9883 14.2812 19.6914 13.5898 20.5469 13.5898C21.4258 13.5898 22.0938 14.2812 22.0938 15.1367C22.0938 16.0156 21.4258 16.6836 20.5469 16.6836C19.6914 16.6836 18.9883 16.0156 18.9883 15.1367ZM2.6875 15.1367C2.6875 14.2812 3.37891 13.5898 4.23438 13.5898C5.125 13.5898 5.79297 14.2812 5.79297 15.1367C5.79297 16.0156 5.125 16.6836 4.23438 16.6836C3.37891 16.6836 2.6875 16.0156 2.6875 15.1367Z" fill="white"/>
</svg>
