<svg width="41" height="40" viewBox="0 0 41 40" fill="none" xmlns="http://www.w3.org/2000/svg">
<mask id="mask0" mask-type="alpha" maskUnits="userSpaceOnUse" x="0" y="0" width="41" height="40">
<path d="M32.7999 0H8.80005C4.38177 0 0.800049 3.58172 0.800049 8V31.9998C0.800049 36.4181 4.38177 39.9998 8.80005 39.9998H32.7999C37.2182 39.9998 40.7999 36.4181 40.7999 31.9998V8C40.7999 3.58172 37.2182 0 32.7999 0Z" fill="#373D4C"/>
</mask>
<g mask="url(#mask0)">
<path d="M40.7999 0H0.800049V39.9998H40.7999V0Z" fill="#373D4C"/>
<path d="M36 20C36 11.6053 29.1948 4.79999 20.8 4.79999C12.4053 4.79999 5.60004 11.6053 5.60004 20C5.60004 28.3947 12.4053 35.2 20.8 35.2C29.1948 35.2 36 28.3947 36 20Z" fill="white"/>
<path d="M35.3465 11.3686C33.8442 8.85564 31.8063 6.86617 29.2325 5.39968C26.6585 3.9331 23.8482 3.20001 20.7999 3.20001C17.7521 3.20001 14.9409 3.93334 12.3672 5.39968C9.79321 6.86609 7.75552 8.85564 6.25321 11.3686C4.75113 13.8814 4.00006 16.6255 4.00006 19.6007C4.00006 23.1744 5.06809 26.3882 7.20472 29.2426C9.3411 32.0971 12.101 34.0723 15.4842 35.1685C15.878 35.2399 16.1695 35.1898 16.359 35.0192C16.5487 34.8487 16.6434 34.6347 16.6434 34.3789C16.6434 34.3362 16.6396 33.9519 16.6323 33.2256C16.6248 32.4995 16.6213 31.8659 16.6213 31.3253L16.1182 31.4103C15.7974 31.4677 15.3927 31.492 14.9041 31.4851C14.4157 31.4784 13.9088 31.4285 13.3839 31.3355C12.8587 31.2435 12.3703 31.0299 11.9182 30.6954C11.4663 30.3608 11.1455 29.9229 10.9559 29.3823L10.7371 28.8909C10.5913 28.5637 10.3618 28.2002 10.0482 27.8018C9.7346 27.4031 9.41748 27.1328 9.09668 26.9904L8.94353 26.8834C8.84149 26.8123 8.74678 26.7264 8.65921 26.6269C8.57171 26.5274 8.5062 26.4277 8.46246 26.328C8.41864 26.2282 8.45494 26.1463 8.57179 26.0819C8.68862 26.0176 8.89979 25.9866 9.20617 25.9866L9.6435 26.0503C9.93518 26.1074 10.296 26.2778 10.7263 26.5627C11.1565 26.8474 11.51 27.2175 11.7872 27.673C12.1227 28.2568 12.5271 28.7016 13.0012 29.0079C13.475 29.3139 13.9527 29.4667 14.4339 29.4667C14.9151 29.4667 15.3306 29.4312 15.6807 29.3603C16.0305 29.2891 16.3587 29.1821 16.6651 29.0399C16.7963 28.0856 17.1537 27.3525 17.7367 26.84C16.9057 26.7547 16.1584 26.6263 15.4947 26.4555C14.8313 26.2845 14.1458 26.0071 13.4386 25.6223C12.7311 25.2381 12.1441 24.761 11.6776 24.1917C11.211 23.6223 10.8281 22.8746 10.5293 21.9493C10.2305 21.0239 10.081 19.9562 10.081 18.7461C10.081 17.0231 10.6571 15.5569 11.8092 14.3467C11.2695 13.0513 11.3205 11.5992 11.9622 9.99041C12.3852 9.86212 13.0123 9.9584 13.8435 10.2786C14.6748 10.599 15.2834 10.8734 15.67 11.1009C16.0566 11.3284 16.3664 11.5211 16.5998 11.6775C17.9562 11.3075 19.3561 11.1224 20.7997 11.1224C22.2434 11.1224 23.6436 11.3075 25.0001 11.6775L25.8313 11.1652C26.3997 10.8234 27.0709 10.5101 27.8434 10.2253C28.6164 9.94073 29.2074 9.86235 29.6159 9.99064C30.2719 11.5995 30.3303 13.0515 29.7905 14.3469C30.9425 15.5571 31.5189 17.0237 31.5189 18.7463C31.5189 19.9563 31.3689 21.0274 31.0705 21.96C30.7717 22.8928 30.3855 23.6399 29.9116 24.2024C29.4373 24.765 28.8466 25.2384 28.1394 25.6226C27.4321 26.0071 26.7463 26.2845 26.0829 26.4555C25.4194 26.6264 24.6721 26.7551 23.841 26.8403C24.5991 27.4808 24.9781 28.4917 24.9781 29.8727V34.3783C24.9781 34.6343 25.0693 34.8479 25.2517 35.0187C25.4341 35.1891 25.722 35.2394 26.1157 35.1679C29.4994 34.0719 32.2593 32.0965 34.3956 29.2419C36.5316 26.3875 37.6001 23.1739 37.6001 19.6C37.5993 16.6253 36.8479 13.8814 35.3465 11.3686Z" fill="#373D4C"/>
</g>
</svg>
