<svg width="41" height="40" viewBox="0 0 41 40" fill="none" xmlns="http://www.w3.org/2000/svg">
<mask id="mask0" mask-type="alpha" maskUnits="userSpaceOnUse" x="0" y="0" width="41" height="40">
<path d="M32.7999 0H8.80005C4.38177 0 0.800049 3.58172 0.800049 8V31.9998C0.800049 36.4181 4.38177 39.9998 8.80005 39.9998H32.7999C37.2182 39.9998 40.7999 36.4181 40.7999 31.9998V8C40.7999 3.58172 37.2182 0 32.7999 0Z" fill="#373D4C"/>
</mask>
<g mask="url(#mask0)">
<circle cx="20.8" cy="20" r="20" fill="#373D4C"/>
<path d="M36.0001 20C36.0001 11.6053 29.1948 4.79999 20.8001 4.79999C12.4054 4.79999 5.6001 11.6053 5.6001 20C5.6001 28.3947 12.4054 35.2 20.8001 35.2C29.1948 35.2 36.0001 28.3947 36.0001 20Z" fill="white"/>
<path d="M35.3464 11.3685C33.8442 8.85558 31.8062 6.86611 29.2325 5.39962C26.6584 3.93304 23.8482 3.19995 20.7998 3.19995C17.752 3.19995 14.9408 3.93328 12.3672 5.39962C9.79315 6.86603 7.75546 8.85558 6.25315 11.3685C4.75107 13.8813 4 16.6254 4 19.6006C4 23.1744 5.06803 26.3881 7.20466 29.2425C9.34104 32.0971 12.1009 34.0723 15.4841 35.1684C15.8779 35.2398 16.1694 35.1897 16.359 35.0192C16.5486 34.8486 16.6433 34.6347 16.6433 34.3788C16.6433 34.3361 16.6396 33.9518 16.6323 33.2256C16.6248 32.4995 16.6212 31.8659 16.6212 31.3252L16.1181 31.4102C15.7973 31.4676 15.3926 31.492 14.904 31.4851C14.4157 31.4784 13.9087 31.4284 13.3838 31.3355C12.8587 31.2435 12.3702 31.0299 11.9181 30.6953C11.4662 30.3608 11.1454 29.9228 10.9558 29.3822L10.7371 28.8908C10.5913 28.5636 10.3617 28.2001 10.0481 27.8017C9.73454 27.403 9.41742 27.1328 9.09662 26.9904L8.94347 26.8833C8.84142 26.8123 8.74672 26.7264 8.65915 26.6268C8.57165 26.5273 8.50614 26.4276 8.4624 26.328C8.41858 26.2281 8.45488 26.1462 8.57173 26.0819C8.68856 26.0176 8.89973 25.9865 9.20611 25.9865L9.64344 26.0502C9.93512 26.1073 10.2959 26.2777 10.7263 26.5627C11.1564 26.8473 11.51 27.2174 11.7871 27.6729C12.1227 28.2568 12.527 28.7016 13.0012 29.0078C13.475 29.3139 13.9527 29.4667 14.4338 29.4667C14.915 29.4667 15.3306 29.4312 15.6807 29.3603C16.0304 29.2891 16.3586 29.182 16.665 29.0398C16.7962 28.0856 17.1536 27.3524 17.7366 26.84C16.9056 26.7547 16.1583 26.6262 15.4946 26.4555C14.8312 26.2844 14.1458 26.007 13.4386 25.6222C12.731 25.238 12.1441 24.7609 11.6775 24.1916C11.2109 23.6222 10.828 22.8745 10.5293 21.9492C10.2304 21.0238 10.0809 19.9561 10.0809 18.746C10.0809 17.023 10.6571 15.5568 11.8092 14.3466C11.2695 13.0512 11.3204 11.5991 11.9622 9.99035C12.3851 9.86206 13.0123 9.95834 13.8434 10.2785C14.6747 10.5989 15.2834 10.8733 15.67 11.1009C16.0566 11.3283 16.3663 11.5211 16.5997 11.6774C17.9562 11.3074 19.356 11.1223 20.7997 11.1223C22.2434 11.1223 23.6435 11.3074 25 11.6774L25.8312 11.1651C26.3997 10.8233 27.0709 10.51 27.8434 10.2253C28.6163 9.94067 29.2074 9.86229 29.6158 9.99058C30.2718 11.5994 30.3302 13.0515 29.7904 14.3468C30.9424 15.557 31.5189 17.0236 31.5189 18.7462C31.5189 19.9563 31.3688 21.0273 31.0704 21.96C30.7717 22.8928 30.3854 23.6398 29.9115 24.2024C29.4373 24.7649 28.8466 25.2384 28.1394 25.6225C27.432 26.007 26.7462 26.2844 26.0829 26.4555C25.4194 26.6264 24.672 26.755 23.841 26.8403C24.599 27.4808 24.9781 28.4916 24.9781 29.8726V34.3782C24.9781 34.6342 25.0693 34.8478 25.2517 35.0187C25.4341 35.1891 25.7219 35.2393 26.1157 35.1678C29.4994 34.0718 32.2592 32.0964 34.3955 29.2419C36.5315 26.3875 37.6 23.1739 37.6 19.6C37.5992 16.6252 36.8478 13.8813 35.3464 11.3685Z" fill="#373D4C"/>
</g>
</svg>
