<?xml version="1.0" encoding="utf-8"?>
<!-- Generator: Adobe Illustrator 21.0.0, SVG Export Plug-In . SVG Version: 6.00 Build 0)  -->
<svg version="1.1" id="Layer_1" xmlns="http://www.w3.org/2000/svg" xmlns:xlink="http://www.w3.org/1999/xlink" x="0px" y="0px"
	 viewBox="0 0 28.45833 14.08333" style="enable-background:new 0 0 28.45833 14.08333;" xml:space="preserve">
<style type="text/css">
	.stb0{fill:#F4BF3F;}
	.stb1{fill:#130E26;}
</style>
<g>
	<path class="stb0" d="M26.14518,14.05275H2.2666c-1.25451,0-2.27148-1.01698-2.27148-2.27148V2.2723
		c0-1.25451,1.01698-2.27148,2.27148-2.27148h23.87858c1.25451,0,2.27148,1.01698,2.27148,2.27148v9.50897
		C28.41667,13.03577,27.39969,14.05275,26.14518,14.05275z"/>
</g>
<g>
	<path class="stb1" d="M3.96767,9.95321v3.08348H2.94881V4.99841c0-0.64108,0.08622-1.14263,0.25866-1.50512
		C3.3799,3.13127,3.67749,2.83182,4.09839,2.59449c0.4209-0.23687,0.88907-0.35554,1.40453-0.35554
		c0.76299,0,1.33964,0.21926,1.73272,0.6573c0.39216,0.43805,0.5887,0.91689,0.5887,1.43652
		c0,0.50804-0.15853,0.91781-0.47467,1.22885C7.03261,5.87265,6.66919,6.0641,6.25942,6.13595
		C6.91951,6.20038,7.4294,6.43771,7.78726,6.84702c0.35878,0.40977,0.53771,0.9141,0.53771,1.51346
		c0,0.64479-0.21138,1.22236-0.63413,1.73226c-0.42275,0.5099-1.03463,0.76531-1.8347,0.76531
		C5.0366,10.85805,4.40711,10.55628,3.96767,9.95321z M4.87158,5.8059c0.69809,0,1.20614-0.12098,1.52505-0.36388
		c0.31799-0.2429,0.47745-0.5938,0.47745-1.0527c0-0.3713-0.13535-0.68233-0.40699-0.93265
		C6.19638,3.20636,5.858,3.0812,5.45193,3.0812c-0.35229,0-0.65916,0.09271-0.91874,0.27859S4.11415,3.75241,4.05574,3.98001
		c-0.05933,0.2276-0.08807,0.62578-0.08807,1.19455v2.29268c0,0.6522,0.04543,1.13197,0.13628,1.4393
		C4.19481,9.21387,4.39042,9.4906,4.68987,9.7372c0.29945,0.2466,0.64432,0.36991,1.03555,0.36991
		c0.47374,0,0.84828-0.16224,1.12363-0.48672C7.12347,9.29638,7.26067,8.89495,7.26067,8.4175
		c0-0.39447-0.10105-0.74816-0.30408-1.06105C6.75356,7.04356,6.50325,6.8308,6.20565,6.71908
		c-0.29759-0.11171-0.69253-0.1678-1.18574-0.1678H4.87158V5.8059z"/>
	<path class="stb1" d="M13.9913,8.77582l1.0578,0.13072c-0.16687,0.61837-0.47559,1.09813-0.92708,1.4393
		c-0.45149,0.34117-1.02814,0.51221-1.72994,0.51221c-0.88351,0-1.58439-0.2721-2.1017-0.81676
		c-0.51824-0.5442-0.7769-1.30719-0.7769-2.28943c0-1.01655,0.26236-1.8055,0.78524-2.36685
		c0.5238-0.56135,1.20243-0.84179,2.0368-0.84179c0.80749,0,1.46757,0.27488,1.97932,0.82464
		c0.51268,0.55022,0.76855,1.32388,0.76855,2.32142c0,0.06072-0.00185,0.15158-0.00556,0.27303h-4.50563
		c0.03708,0.66379,0.22528,1.17183,0.56274,1.52459s0.75836,0.5289,1.26269,0.5289c0.37547,0,0.69624-0.09827,0.96139-0.29574
		C13.6251,9.52305,13.83555,9.20784,13.9913,8.77582z M10.62877,7.12005h3.37366C13.957,6.612,13.82814,6.23097,13.61583,5.97649
		c-0.32633-0.39401-0.74908-0.59148-1.26918-0.59148c-0.47003,0-0.8659,0.1576-1.18574,0.47235
		C10.84015,6.1721,10.66307,6.593,10.62877,7.12005z"/>
	<path class="stb1" d="M18.91227,9.80534l0.14833,0.90437c-0.28832,0.06072-0.54698,0.09132-0.77411,0.09132
		c-0.37176,0-0.66008-0.05887-0.86497-0.17661c-0.20489-0.11728-0.34859-0.2721-0.43202-0.46354s-0.12516-0.59426-0.12516-1.20892
		v-3.4761H16.1134V4.6795h0.75094V3.18365l1.01794-0.61466V4.6795h1.02999v0.79637h-1.02999v3.53312
		c0,0.29203,0.01854,0.47977,0.0547,0.5632c0.03523,0.08344,0.09456,0.14972,0.17615,0.19886
		c0.08158,0.0496,0.19839,0.07417,0.34951,0.07417C18.57666,9.84521,18.72685,9.83177,18.91227,9.80534z"/>
	<path class="stb1" d="M24.4312,9.97593c-0.37918,0.32263-0.74445,0.55022-1.09489,0.6828
		c-0.35136,0.13257-0.72776,0.19932-1.12919,0.19932c-0.66379,0-1.17462-0.16224-1.53061-0.48672
		c-0.35693-0.32402-0.53493-0.73842-0.53493-1.24276c0-0.2962,0.06768-0.56645,0.2021-0.81073
		c0.13443-0.24475,0.31057-0.44083,0.52936-0.58916c0.21786-0.14787,0.46354-0.25958,0.7361-0.3356
		c0.20118-0.05284,0.50433-0.1043,0.9104-0.15343c0.82696-0.09873,1.43605-0.21601,1.82635-0.35276
		c0.00371-0.13999,0.00556-0.22945,0.00556-0.26746c0-0.41719-0.09642-0.71107-0.29018-0.88166
		c-0.26144-0.23131-0.65081-0.34719-1.16627-0.34719c-0.48116,0-0.83716,0.08483-1.06615,0.25356
		c-0.22992,0.16873-0.39957,0.46725-0.5099,0.89556l-1.00125-0.13628c0.09178-0.42878,0.24104-0.77458,0.44964-1.03833
		c0.20859-0.26329,0.5099-0.46632,0.90483-0.60863c0.39401-0.14231,0.85106-0.21323,1.37116-0.21323
		c0.51546,0,0.9345,0.06072,1.25713,0.18171c0.3217,0.12145,0.55903,0.27442,0.71107,0.45798
		c0.15111,0.18403,0.25773,0.41626,0.31892,0.69717c0.03337,0.17429,0.05099,0.48904,0.05099,0.94423V8.1899
		c0,0.95165,0.02132,1.55379,0.0649,1.80596s0.12979,0.49414,0.25958,0.72544h-1.06985
		C24.52947,10.509,24.46179,10.26054,24.4312,9.97593z M24.3459,7.68928c-0.37176,0.15158-0.92894,0.28044-1.67246,0.38659
		c-0.4209,0.06072-0.71849,0.12886-0.89371,0.20489c-0.17429,0.07602-0.30872,0.18681-0.40328,0.33282
		c-0.09549,0.14602-0.14277,0.30826-0.14277,0.48626c0,0.27303,0.10383,0.50063,0.31057,0.6828s0.50897,0.27303,0.90669,0.27303
		c0.39494,0,0.74537-0.08622,1.05317-0.25866c0.30686-0.1729,0.53214-0.40884,0.67677-0.70829
		c0.11032-0.23131,0.16502-0.57294,0.16502-1.02396V7.68928z"/>
</g>
<g>
</g>
<g>
</g>
<g>
</g>
<g>
</g>
<g>
</g>
<g>
</g>
<g>
</g>
<g>
</g>
<g>
</g>
<g>
</g>
<g>
</g>
<g>
</g>
<g>
</g>
<g>
</g>
<g>
</g>
</svg>
