<svg viewBox="0 0 12 10" fill="none" xmlns="http://www.w3.org/2000/svg">
  <path d="M6.04687 2.12891C5.92969 2.12891 5.8304 2.1696 5.74902 2.25098C5.66764 2.33236 5.62695 2.43001 5.62695 2.54395V5.0293C5.62695 5.08464 5.63672 5.13835 5.65625 5.19043C5.67578 5.24251 5.7067 5.29622 5.74902 5.35156L6.83301 6.78711C6.9209 6.89779 7.02018 6.96289 7.13086 6.98242C7.24479 7.00195 7.35384 6.97428 7.45801 6.89941C7.55566 6.83105 7.60775 6.73991 7.61426 6.62598C7.62402 6.51204 7.5931 6.40462 7.52148 6.30371L6.02734 4.30176L6.46191 5.625V2.54395C6.46191 2.43001 6.42122 2.33236 6.33984 2.25098C6.25846 2.1696 6.16081 2.12891 6.04687 2.12891ZM6.21777 9.59473C6.87532 9.59473 7.49381 9.4694 8.07324 9.21875C8.65267 8.9681 9.1621 8.62142 9.60156 8.17871C10.0443 7.73926 10.3893 7.22982 10.6367 6.65039C10.8874 6.07096 11.0127 5.45247 11.0127 4.79492C11.0127 4.13737 10.8874 3.52051 10.6367 2.94434C10.3893 2.36491 10.0443 1.85384 9.60156 1.41113C9.1621 0.968424 8.65267 0.623372 8.07324 0.375977C7.49381 0.125326 6.87532 0 6.21777 0C5.56348 0 4.94661 0.123698 4.36719 0.371094C3.79102 0.61849 3.28158 0.961914 2.83887 1.40137C2.39941 1.84082 2.05273 2.34863 1.79883 2.9248C1.54818 3.50098 1.42122 4.11621 1.41797 4.77051H2.42383C2.42708 4.24967 2.52799 3.76139 2.72656 3.30566C2.92513 2.84668 3.19694 2.44629 3.54199 2.10449C3.8903 1.7627 4.29232 1.49577 4.74805 1.30371C5.20377 1.1084 5.69368 1.01074 6.21777 1.01074C6.74186 1.01074 7.2334 1.1084 7.69238 1.30371C8.15137 1.49902 8.55338 1.76921 8.89843 2.11426C9.24674 2.45931 9.51855 2.86133 9.71386 3.32031C9.90917 3.7793 10.0068 4.27083 10.0068 4.79492C10.0068 5.31901 9.90917 5.81055 9.71386 6.26953C9.51855 6.72852 9.24674 7.13216 8.89843 7.48047C8.55338 7.82878 8.15137 8.10059 7.69238 8.2959C7.2334 8.49121 6.74186 8.58724 6.21777 8.58398C5.81413 8.58398 5.43001 8.52539 5.06543 8.4082C4.7041 8.29102 4.37044 8.125 4.06445 7.91016C3.76172 7.69206 3.49479 7.43652 3.26367 7.14355C3.15951 7.02962 3.04069 6.95801 2.90723 6.92871C2.77376 6.89941 2.64844 6.93034 2.53125 7.02148C2.41732 7.10286 2.35384 7.21517 2.34082 7.3584C2.33105 7.49837 2.38151 7.63509 2.49219 7.76855C2.77214 8.12988 3.10905 8.44727 3.50293 8.7207C3.89681 8.99414 4.32487 9.20736 4.78711 9.36035C5.24935 9.5166 5.72624 9.59473 6.21777 9.59473ZM0.919909 3.30566C0.796211 3.30566 0.70181 3.33496 0.636706 3.39355C0.574857 3.44889 0.54556 3.52051 0.548815 3.6084C0.552071 3.69303 0.587878 3.78092 0.656237 3.87207L1.80858 5.46387C1.88996 5.57129 1.98436 5.625 2.09178 5.625C2.19921 5.625 2.29198 5.57129 2.3701 5.46387L3.52733 3.87207C3.59244 3.78418 3.62499 3.69629 3.62499 3.6084C3.62824 3.52051 3.59895 3.44889 3.5371 3.39355C3.4785 3.33496 3.38736 3.30566 3.26366 3.30566H0.919909Z" fill="currentColor"/>
</svg>
