<svg width="41" height="40" viewBox="0 0 41 40" fill="none" xmlns="http://www.w3.org/2000/svg">
  <mask id="mask0" mask-type="alpha" maskUnits="userSpaceOnUse" x="0" y="0" width="41" height="40">
    <path d="M32.5998 0H8.59998C4.1817 0 0.599976 3.58172 0.599976 8V31.9998C0.599976 36.4181 4.1817 39.9998 8.59998 39.9998H32.5998C37.0181 39.9998 40.5998 36.4181 40.5998 31.9998V8C40.5998 3.58172 37.0181 0 32.5998 0Z" fill="#373D4C"/>
  </mask>
  <g mask="url(#mask0)">
    <path d="M20.6 36.8C29.8784 36.8 37.4 29.2784 37.4 20C37.4 10.7216 29.8784 3.20001 20.6 3.20001C11.3216 3.20001 3.79999 10.7216 3.79999 20C3.79999 29.2784 11.3216 36.8 20.6 36.8Z" fill="white"/>
    <path d="M20.6 39.9998C31.6481 39.9998 40.5998 31.0482 40.5998 20C40.5998 8.95163 31.6481 0 20.6 0C9.55161 0 0.599976 8.95163 0.599976 20C0.599976 31.0482 9.55161 39.9998 20.6 39.9998ZM9.75161 19.5666L29.0349 12.1316C29.9299 11.8083 30.7115 12.35 30.4216 13.7033L30.4232 13.7016L27.1398 29.1699C26.8966 30.2666 26.2449 30.5333 25.3333 30.0165L20.3333 26.3315L17.9216 28.6549C17.6549 28.9216 17.4299 29.1466 16.9133 29.1466L17.2683 24.0582L26.5349 15.6866C26.9382 15.3316 26.4449 15.1316 25.9133 15.4849L14.4616 22.6949L9.52494 21.1549C8.45329 20.8149 8.42994 20.0832 9.75161 19.5666Z" fill="#373D4C"/>
  </g>
</svg>
