<svg width="41" height="40" viewBox="0 0 41 40" fill="none" xmlns="http://www.w3.org/2000/svg">
<g clip-path="url(#clip0)">
<path d="M31.28 3.20001H9.52004C6.25051 3.20001 3.60004 5.85049 3.60004 9.12001V30.88C3.60004 34.1495 6.25051 36.8 9.52004 36.8H31.28C34.5496 36.8 37.2 34.1495 37.2 30.88V9.12001C37.2 5.85049 34.5496 3.20001 31.28 3.20001Z" fill="white"/>
<path fill-rule="evenodd" clip-rule="evenodd" d="M31.6388 15.2421C31.9847 22.9291 26.2514 31.5003 16.1025 31.5003C13.0166 31.5003 10.1429 30.5965 7.72378 29.0456C10.6242 29.3878 13.5176 28.5821 15.8155 26.7834C13.4249 26.737 11.4051 25.1576 10.7116 22.988C11.5673 23.152 12.4105 23.1021 13.1788 22.8934C10.5511 22.364 8.73456 19.9966 8.79518 17.4651C9.53144 17.8734 10.3747 18.1194 11.2696 18.148C8.83617 16.5221 8.14627 13.3079 9.57957 10.8495C12.275 14.1582 16.3021 16.3331 20.8445 16.5613C20.0476 13.1421 22.6415 9.85123 26.1712 9.85123C27.74 9.85123 29.1608 10.5144 30.1591 11.5751C31.4034 11.3309 32.5728 10.8763 33.63 10.2505C33.2218 11.5252 32.3554 12.5984 31.2269 13.274C32.334 13.1403 33.3858 12.848 34.3663 12.413C33.6336 13.5093 32.7084 14.4702 31.6388 15.2421ZM40.3972 8.37158C40.3847 3.74725 36.6357 0 32.006 0H8.79162C4.15657 0 0.400421 3.75794 0.400421 8.39118V31.6091C0.400421 36.2424 4.15657 40.0003 8.79162 40.0003H32.006C36.6357 40.0003 40.3847 36.2531 40.3972 31.6269V8.37158Z" fill="#373D4C"/>
</g>
<defs>
<clipPath id="clip0">
<path d="M0.400024 0H40.4V40H0.400024V0Z" fill="white"/>
</clipPath>
</defs>
</svg>
