<svg width="16" height="16" viewBox="0 0 16 16" xmlns="http://www.w3.org/2000/svg">
<path d="M8 0C6.41775 0 4.87104 0.469192 3.55544 1.34824C2.23985 2.22729 1.21447 3.47672 0.608967 4.93853C0.00346629 6.40034 -0.15496 8.00887 0.153721 9.56072C0.462403 11.1126 1.22433 12.538 2.34315 13.6569C3.46197 14.7757 4.88743 15.5376 6.43928 15.8463C7.99113 16.155 9.59966 15.9965 11.0615 15.391C12.5233 14.7855 13.7727 13.7602 14.6518 12.4446C15.5308 11.129 16 9.58225 16 8C16 5.87827 15.1571 3.84344 13.6569 2.34315C12.1566 0.842855 10.1217 0 8 0V0ZM14.38 6.06667C14.3381 6.03553 14.2906 6.01288 14.24 6C14.0667 5.93333 13.34 6.4 13.2333 6.17333C13.1267 5.94667 13.0133 6.26667 12.8467 6.17333C12.68 6.08 12.54 5.82667 12.44 5.86667C12.2333 5.94 12.76 6.53333 12.9 6.59333C13.0333 6.48667 13.4733 6.28 13.5667 6.59333C13.7467 7.13333 13.0733 7.72667 12.7267 8.04C12.2067 8.50667 12.3067 7.73333 11.9533 7.46667C11.7667 7.32667 11.7733 7.02 11.5867 6.91333C11.4037 6.75646 11.2462 6.57202 11.12 6.36667V6.48C11.06 6.52667 10.9267 6.3 10.9133 6.26667C10.9133 6.46 11.2333 6.78 11.34 6.93333C11.4794 7.2448 11.6491 7.54178 11.8467 7.82C11.9667 7.94667 12.42 8.44 12.5133 8.42667L13.1267 8.14C13.56 8.24 12.1067 10.2933 11.9733 10.5467C11.84 10.8 12.06 11.2933 12.0467 11.54C12.0333 11.7867 11.8 11.9267 11.58 12.0867C11.36 12.2467 11.4 12.5867 11.2067 12.7133C10.86 12.9267 10.6067 13.62 10.1133 13.62C9.96667 13.62 9.34667 13.86 9.26667 13.62C9.18667 13.38 9.11334 13.32 9.02667 13.1467C8.94 12.9733 9.02667 12.8067 8.90667 12.66C8.78667 12.5133 8.59334 12.3267 8.56667 12.2067C8.54 12.0867 8.64667 11.7867 8.75334 11.7267C8.86 11.6667 8.75334 11.42 8.75334 11.2867C8.71289 11.0575 8.58651 10.8525 8.4 10.7133C8.13334 10.5133 8.27334 10.3533 8.33334 10.0467C8.33334 9.90667 8.24667 9.72667 8.06667 9.78C7.68667 9.89333 7.8 9.48667 7.52 9.5C7.33201 9.54967 7.149 9.61662 6.97334 9.7C6.7365 9.72077 6.49795 9.69123 6.27334 9.61333C5.32667 9.49333 5.01334 8.41333 5.26667 7.61333C5.26667 7.48667 5.18667 7.24667 5.23334 7.14667C5.36397 6.89602 5.53774 6.67035 5.74667 6.48C5.85334 6.38 5.98667 6.40667 6.11334 6.32667C6.24 6.24667 6.30667 5.95333 6.5 5.8C6.79836 5.62338 7.14002 5.53335 7.48667 5.54C7.67334 5.54 8.38667 5.36 8.5 5.5C8.5 5.5 8.62667 5.90667 8.5 5.88667C8.79334 5.88667 9.20667 6.38667 9.48 6.27333C9.62667 6.21333 9.57334 5.78 9.86667 5.98667C10.233 6.12671 10.6372 6.13144 11.0067 6C11.1067 5.92 11.1667 5.38 11.0467 5.33333C11.12 5.41333 10.6333 5.42 10.5867 5.4C10.54 5.38 10.4267 5.48 10.3 5.4C10.38 5.43333 9.86667 5.16 10.1533 4.94667C10.0333 5.04 9.92 4.94667 9.79334 5.02C9.66667 5.09333 9.83334 5.14 9.70667 5.20667C9.58 5.27333 9.34667 4.85333 9.27334 4.8C9.2 4.74667 8.60667 4.32667 8.75334 4.6L9.28667 5.13333C9.28667 5.13333 9.14667 4.94 9.14667 5.09333C9.14667 5 9.14667 5.48 9.07334 5.32667C9 5.17333 9.13334 5.23333 9.07334 5.14667C9.01334 5.06 8.92 5.03333 8.88667 4.99333C8.76615 4.84048 8.62214 4.70772 8.46 4.6C8.27361 4.61077 8.08848 4.63754 7.90667 4.68C7.85891 4.74408 7.81865 4.81342 7.78667 4.88667C7.68538 4.92342 7.58908 4.97269 7.5 5.03333L7.39334 5.26667C7.22654 5.34393 7.0551 5.41072 6.88 5.46667C6.88 5.42 6.55334 5.35333 6.57334 5.25333C6.63428 5.0637 6.66576 4.86585 6.66667 4.66667C6.66667 4.53333 7.38667 4.86 7.44 4.51333C7.44 4.36 7.44 4.18 7.22667 4.15333C7.41926 4.10534 7.60199 4.02412 7.76667 3.91333C7.89064 3.76156 8.06205 3.6559 8.25334 3.61333C8.44667 3.61333 8.40667 3.34 8.49334 3.2C8.58 3.2 8.44 3.45333 8.54667 3.54C8.54667 3.47333 8.84667 3.58 8.88 3.54C8.91334 3.5 9.34 3.54 9.28 3.34C9.22 3.14 9.28 3.20667 9.4 3.16667C9.4 3.16667 9.56667 2.86 9.64667 2.86667C9.57334 2.80667 9.38 2.94 9.3 2.93333C9.09334 2.93333 9.18 2.58 9.26 2.48667C9.34 2.39333 9.09334 2.31333 9.09334 2.48667C9.09334 2.66 8.88 2.91333 8.93334 3.20667C9 3.64667 8.43334 3.1 8.38667 3.12667C8.2 3.24 8.04 2.98667 8.14 2.82667C8.24 2.66667 8.48 2.68 8.58 2.50667C8.64517 2.37645 8.73324 2.25902 8.84 2.16C9.2 1.86 9.3 2.1 9.66 2.16C10.02 2.22 9.78 2.24 9.72667 2.37333C9.67334 2.50667 9.92 2.55333 10.0067 2.44C10.0851 2.33877 10.1522 2.22922 10.2067 2.11333C10.2533 1.99333 10.5867 1.98 10.5533 1.86667C11.4597 2.24398 12.2722 2.81568 12.9334 3.54141C13.5946 4.26713 14.0885 5.12918 14.38 6.06667ZM6.96667 3.54667L7.01334 3.48667H7.06667C7.06667 3.48667 7.12 3.40667 7.16667 3.42C7.21334 3.43333 7.26 3.48 7.24 3.52C7.22 3.56 7.19334 3.52 7.18667 3.58667C7.18 3.65333 7.06 3.69333 6.97334 3.73333C6.88667 3.77333 6.86 3.73333 6.91334 3.66667L6.97334 3.59333L6.96667 3.54667ZM7.26667 3.70667C7.26667 3.70667 7.35334 3.70667 7.36667 3.64667C7.38332 3.6112 7.39195 3.57251 7.39195 3.53333C7.39195 3.49416 7.38332 3.45546 7.36667 3.42C7.36667 3.42 7.44667 3.36667 7.4 3.33333H7.33334C7.33334 3.33333 7.44 2.88667 7.58 3.08667L7.52 3.16C7.60098 3.29831 7.64889 3.45345 7.66 3.61333C7.74667 3.66 7.88 3.66667 7.72667 3.74667C7.80667 3.74667 7.31334 3.95333 7.24667 3.86C7.18 3.76667 7.46 3.76667 7.45334 3.74667C7.44667 3.72667 7.22667 3.75333 7.26667 3.70667ZM8.22 1.33333L8 1.56C7.76 1.76 7.14667 2.15333 6.80667 2.03333C6.46667 1.91333 5.70667 2.47333 5.58667 2.48C5.46667 2.48667 5.58667 2.05333 5.82667 2.02C5.73334 2.02 6.49334 1.64 6.62 1.48667C7.07313 1.38592 7.53582 1.33451 8 1.33333H8.22ZM4.82667 2.14C4.87334 2.19333 5.01334 2.2 4.82667 2.32667C4.64 2.45333 4.58 2.86667 4.46667 2.86667C4.12667 3.02 4.1 2.57333 3.72667 3.14667C3.67334 3.22 3.46 3.24667 3.29334 3.3C3.74515 2.84063 4.26173 2.44983 4.82667 2.14ZM1.33334 8C1.33735 7.6448 1.36856 7.29043 1.42667 6.94L1.62 7.06667C1.69334 7.15333 1.69334 7.54667 1.73334 7.67333C1.86179 7.96002 2.03012 8.2271 2.23334 8.46667C2.37848 8.70818 2.45457 8.98489 2.45334 9.26667C2.52667 9.14667 3.17334 9.81333 3.29334 9.93333C3.57334 10.26 3.78667 10.66 3.33334 10.98C3.18667 11.0867 3.55334 11.74 3.33334 11.9067L3.12 12C3.05716 12.0475 3.01235 12.1149 2.99296 12.1913C2.97357 12.2676 2.98076 12.3483 3.01334 12.42C1.92831 11.2037 1.33012 9.62991 1.33334 8ZM10.9 4.12C10.9533 4.12 10.8267 4.22667 10.8267 4.22667C10.8267 4.4 10.9733 4.49333 11.2133 4.58C11.4533 4.66667 11.2133 4.88667 11.0733 4.84C10.9333 4.79333 10.5 4.66667 10.4867 4.84C10.4733 5.01333 10.0333 4.84 10.1067 4.72667C10.18 4.61333 10.14 4.46667 10.2267 4.34667C10.3133 4.22667 10.48 4.27333 10.4867 4.34667C10.4867 4.66667 10.7533 4.13333 10.9 4.12Z" />
</svg>
