<svg width="12" height="14" viewBox="0 0 12 14" xmlns="http://www.w3.org/2000/svg">
<path d="M12 4.87607C12 3.27291 11.1432 2.44055 11.1432 2.44055C11.1432 2.44055 11.5943 0.731501 10.987 0.0050332C10.3091 -0.0663822 9.09198 0.64038 8.57288 0.970369C7.14684 0.530383 5.61672 0.530383 4.19068 0.970369C3.67157 0.64038 2.45693 -0.0663822 1.77907 0.0050332C1.17176 0.743814 1.62283 2.44055 1.62283 2.44055C1.62283 2.44055 0.766044 3.27291 0.766044 4.87607C0.766044 9.02555 4.74505 8.98122 4.74505 8.98122C4.45461 9.33303 4.27902 9.76201 4.24106 10.2125C3.92863 10.325 3.60081 10.3914 3.26837 10.4095C2.43426 10.4095 1.79924 9.61656 1.5674 9.24963C1.44483 9.05872 1.27771 8.89893 1.07971 8.78336C0.881723 8.66778 0.658496 8.59971 0.428379 8.58474C0.141105 8.58474 0 8.72511 0 8.88764C0 9.05017 0.40317 9.55388 0.670285 9.85185C1.23475 10.4823 1.22468 11.9007 3.23056 11.9007C3.56801 11.8855 3.90444 11.9747 4.23854 11.9259C4.23854 12.3593 4.23854 12.2885 4.23854 12.5545C4.25114 13.047 3.65897 13.3105 3.65897 13.3105C3.65897 13.3105 5.03989 14 6.38302 14C7.72615 14 9.1071 13.3105 9.1071 13.3105C9.1071 13.3105 8.5149 13.0396 8.5275 12.5545C8.5275 12.0201 8.5275 10.7765 8.5275 10.3209C8.51698 9.83191 8.33959 9.3604 8.02351 8.98122C8.02351 8.98122 12 9.02555 12 4.87607Z"/>
</svg>
