<svg width="104" height="50" viewBox="0 0 104 50" fill="none" xmlns="http://www.w3.org/2000/svg">
<g clip-path="url(#clip0_1985_4015)">
<path d="M55.9199 3.05005H58.2699L59.9399 15.56H57.6399L56.5799 7.51005L53.6699 15.56H51.5599L48.6499 7.51005L47.5899 15.56H45.1699L46.8399 3.05005H49.1899L52.5499 11.94L55.9199 3.05005Z" fill="white"/>
<path d="M73.1598 15.56H70.7498L69.7498 13H64.5198L63.5098 15.56H61.0498L65.9798 3.05005H68.2298L73.1598 15.56ZM65.4598 10.58H68.7898L67.1298 6.36005L65.4598 10.58Z" fill="white"/>
<path d="M78.1105 3.05005C78.6905 3.05005 79.2305 3.14005 79.7205 3.33005C80.2105 3.52005 80.6405 3.78005 81.0105 4.12005C81.3805 4.46005 81.6605 4.87005 81.8705 5.35005C82.0805 5.83005 82.1805 6.36005 82.1805 6.95005C82.1805 7.52005 82.0805 8.04005 81.8805 8.52005C81.6805 9.00005 81.4005 9.41005 81.0405 9.75005C80.6805 10.09 80.2505 10.36 79.7505 10.55C79.2505 10.74 78.7005 10.84 78.1105 10.84H76.8005V15.56H74.5205V3.05005H78.1105ZM76.8005 5.51005V8.39005H78.4505C78.8605 8.39005 79.2005 8.26005 79.4805 8.00005C79.7605 7.74005 79.9005 7.39005 79.9005 6.96005C79.9005 6.55005 79.7705 6.21005 79.5005 5.93005C79.2305 5.65005 78.8805 5.51005 78.4505 5.51005H76.8005Z" fill="white"/>
<path d="M91.7598 15.2601C91.0198 15.5901 90.2298 15.7601 89.4098 15.7601C88.5798 15.7601 87.7998 15.5901 87.0598 15.2601C86.3198 14.9301 85.6598 14.4801 85.0998 13.9001C84.5398 13.3201 84.0898 12.6501 83.7598 11.8601C83.4298 11.0801 83.2598 10.2201 83.2598 9.31011C83.2598 8.39011 83.4298 7.54011 83.7598 6.76011C84.0898 5.98011 84.5398 5.30011 85.0998 4.72011C85.6598 4.15011 86.3198 3.69011 87.0598 3.36011C87.7998 3.03011 88.5898 2.86011 89.4098 2.86011C90.2398 2.86011 91.0198 3.03011 91.7598 3.36011C92.4998 3.69011 93.1598 4.14011 93.7198 4.72011C94.2798 5.30011 94.7298 5.97011 95.0598 6.76011C95.3898 7.55011 95.5598 8.40011 95.5598 9.31011C95.5598 10.2301 95.3898 11.0801 95.0598 11.8601C94.7298 12.6401 94.2798 13.3201 93.7198 13.9001C93.1598 14.4701 92.4998 14.9301 91.7598 15.2601ZM91.2998 4.70011C90.7098 4.45011 90.0798 4.33011 89.4098 4.33011C88.7398 4.33011 88.1098 4.45011 87.5198 4.70011C86.9298 4.95011 86.4298 5.30011 85.9898 5.74011C85.5598 6.18011 85.2198 6.71011 84.9798 7.32011C84.7398 7.93011 84.6098 8.60011 84.6098 9.32011C84.6098 10.0401 84.7298 10.7101 84.9798 11.3201C85.2198 11.9301 85.5598 12.4601 85.9898 12.9001C86.4198 13.3401 86.9298 13.6901 87.5198 13.9401C88.1098 14.1901 88.7398 14.3101 89.4098 14.3101C90.0798 14.3101 90.7098 14.1901 91.2998 13.9401C91.8898 13.6901 92.3898 13.3401 92.8298 12.9001C93.2598 12.4601 93.5998 11.9301 93.8398 11.3201C94.0798 10.7101 94.2098 10.0501 94.2098 9.32011C94.2098 8.60011 94.0898 7.93011 93.8398 7.32011C93.5998 6.71011 93.2598 6.18011 92.8298 5.74011C92.3898 5.29011 91.8798 4.95011 91.2998 4.70011Z" fill="#808080"/>
<path d="M97.2803 3.05005H103.45V4.50005H98.6403V8.40005H103.1V9.85005H98.6403V15.57H97.2803V3.05005Z" fill="#808080"/>
<path d="M44.9902 19.4602H52.2102V21.3302L47.8002 29.5002H52.2402V31.9802H44.9902V30.1102L49.3302 21.9402H44.9902V19.4602Z" fill="white"/>
<path d="M57.3206 19.7102C58.1006 19.3802 58.9206 19.2102 59.8006 19.2102C60.6706 19.2102 61.5006 19.3702 62.2806 19.7002C63.0606 20.0302 63.7406 20.4802 64.3406 21.0502C64.9306 21.6302 65.4006 22.3102 65.7406 23.1102C66.0806 23.9102 66.2506 24.7802 66.2506 25.7202C66.2506 26.6502 66.0806 27.5102 65.7406 28.3002C65.4006 29.0902 64.9306 29.7802 64.3406 30.3602C63.7506 30.9402 63.0606 31.4002 62.2806 31.7302C61.5006 32.0602 60.6806 32.2302 59.8006 32.2302C58.9306 32.2302 58.1006 32.0602 57.3206 31.7302C56.5406 31.4002 55.8606 30.9402 55.2606 30.3602C54.6706 29.7802 54.2006 29.0902 53.8606 28.3002C53.5206 27.5102 53.3506 26.6502 53.3506 25.7202C53.3506 24.7902 53.5206 23.9302 53.8606 23.1402C54.2006 22.3502 54.6706 21.6602 55.2606 21.0802C55.8606 20.5002 56.5406 20.0402 57.3206 19.7102ZM61.4206 21.9802C60.9206 21.7902 60.3806 21.6902 59.8006 21.6902C59.2206 21.6902 58.6806 21.7902 58.1806 21.9802C57.6806 22.1702 57.2406 22.4502 56.8706 22.8002C56.5006 23.1602 56.2106 23.5802 56.0006 24.0702C55.7906 24.5602 55.6906 25.1102 55.6906 25.7202C55.6906 26.3302 55.8006 26.8702 56.0006 27.3702C56.2106 27.8602 56.5006 28.2902 56.8706 28.6402C57.2406 28.9902 57.6806 29.2702 58.1806 29.4602C58.6806 29.6502 59.2206 29.7502 59.8006 29.7502C60.3806 29.7502 60.9206 29.6502 61.4206 29.4602C61.9206 29.2702 62.3506 28.9902 62.7206 28.6402C63.0906 28.2902 63.3706 27.8602 63.5806 27.3702C63.7906 26.8802 63.8906 26.3302 63.8906 25.7202C63.8906 25.1102 63.7906 24.5702 63.5806 24.0702C63.3706 23.5802 63.0806 23.1502 62.7206 22.8002C62.3506 22.4402 61.9206 22.1702 61.4206 21.9802Z" fill="white"/>
<path d="M68.2207 19.4602H70.5007L76.3207 27.9502V19.4602H78.6007V31.9702H76.3007L70.5007 23.5302V31.9702H68.2207V19.4602Z" fill="white"/>
<path d="M81.4102 19.4602H88.3102V21.9402H83.7001V24.3102H87.8002V26.7902H83.7001V29.5102H88.3202V31.9902H81.4202V19.4602H81.4102Z" fill="white"/>
<path d="M96.6099 23.0502C96.2399 22.6302 95.7899 22.3002 95.2799 22.0602C94.7599 21.8202 94.2599 21.6902 93.7699 21.6902C93.6299 21.6902 93.4899 21.7002 93.3599 21.7302C93.2299 21.7502 93.0999 21.7902 92.9899 21.8402C92.8699 21.8902 92.7799 21.9702 92.7099 22.0702C92.6399 22.1702 92.5999 22.2902 92.5999 22.4302C92.5999 22.6302 92.6899 22.8202 92.8799 23.0002C93.0699 23.1902 93.2499 23.3502 93.4399 23.5102C93.9299 23.9002 94.3599 24.2502 94.7399 24.5502C95.1199 24.8502 95.4699 25.1502 95.8099 25.4502C96.0499 25.6602 96.2799 25.8802 96.4899 26.1002C96.6999 26.3302 96.8799 26.5702 97.0399 26.8302C97.1999 27.0902 97.3199 27.3802 97.4099 27.6802C97.4999 27.9902 97.5499 28.3202 97.5499 28.6802C97.5499 29.2102 97.4599 29.7002 97.2699 30.1302C97.0799 30.5602 96.8199 30.9402 96.4899 31.2502C96.1499 31.5602 95.7499 31.8002 95.2899 31.9702C94.8199 32.1402 94.3099 32.2202 93.7599 32.2202C93.2799 32.2202 92.8299 32.1602 92.4099 32.0302C91.9899 31.9002 91.5999 31.7402 91.2599 31.5302C90.9199 31.3202 90.6299 31.1002 90.3899 30.8402C90.1499 30.5802 89.9799 30.3302 89.8799 30.0702L90.5599 27.9102C90.7499 28.1802 90.9699 28.4202 91.2199 28.6402C91.4799 28.8602 91.7499 29.0502 92.0499 29.2102C92.3499 29.3702 92.6499 29.5002 92.9699 29.5902C93.2899 29.6802 93.5899 29.7302 93.8899 29.7302C94.2699 29.7302 94.5999 29.6502 94.8599 29.4802C95.1199 29.3102 95.2499 29.0502 95.2499 28.7002C95.2499 28.4302 95.1699 28.1902 95.0199 27.9902C94.8599 27.7802 94.6399 27.5502 94.3499 27.3102C93.7599 26.8202 93.2299 26.3902 92.7599 26.0102C92.2899 25.6302 91.8799 25.2602 91.5299 24.8902C91.2199 24.5502 90.9399 24.1802 90.6899 23.7702C90.4399 23.3602 90.3199 22.8702 90.3199 22.3102C90.3199 21.8102 90.4099 21.3702 90.5999 20.9902C90.7899 20.6102 91.0399 20.2802 91.3499 20.0202C91.6599 19.7602 92.0299 19.5602 92.4499 19.4202C92.8699 19.2802 93.3199 19.2102 93.7899 19.2102C94.1699 19.2102 94.5399 19.2602 94.8799 19.3602C95.2199 19.4602 95.5399 19.5902 95.8199 19.7402C96.0999 19.9002 96.3599 20.0702 96.5799 20.2702C96.7999 20.4702 96.9699 20.6702 97.0999 20.8802L96.6099 23.0502Z" fill="white"/>
<path d="M17.8912 1.93001C18.4103 1.93001 18.8312 1.5002 18.8312 0.97001C18.8312 0.439816 18.4103 0.0100098 17.8912 0.0100098C17.372 0.0100098 16.9512 0.439816 16.9512 0.97001C16.9512 1.5002 17.372 1.93001 17.8912 1.93001Z" fill="#CDC366"/>
<path d="M21.841 5.8099C22.4209 5.8099 22.891 5.32637 22.891 4.7299C22.891 4.13343 22.4209 3.6499 21.841 3.6499C21.2611 3.6499 20.791 4.13343 20.791 4.7299C20.791 5.32637 21.2611 5.8099 21.841 5.8099Z" fill="#CEB866"/>
<path d="M23.9102 10.86C24.5564 10.86 25.0802 10.3227 25.0802 9.65996C25.0802 8.99722 24.5564 8.45996 23.9102 8.45996C23.2641 8.45996 22.7402 8.99722 22.7402 9.65996C22.7402 10.3227 23.2641 10.86 23.9102 10.86Z" fill="#D0AC67"/>
<path d="M22.8408 16.3199C23.5532 16.3199 24.1308 15.7289 24.1308 14.9999C24.1308 14.2709 23.5532 13.6799 22.8408 13.6799C22.1283 13.6799 21.5508 14.2709 21.5508 14.9999C21.5508 15.7289 22.1283 16.3199 22.8408 16.3199Z" fill="#D1A167"/>
<path d="M13.3911 21.57C14.2306 21.57 14.9111 20.876 14.9111 20.02C14.9111 19.1639 14.2306 18.47 13.3911 18.47C12.5516 18.47 11.8711 19.1639 11.8711 20.02C11.8711 20.876 12.5516 21.57 13.3911 21.57Z" fill="#D38B68"/>
<path d="M12.1107 26.81C13.0164 26.81 13.7507 26.0623 13.7507 25.14C13.7507 24.2177 13.0164 23.47 12.1107 23.47C11.205 23.47 10.4707 24.2177 10.4707 25.14C10.4707 26.0623 11.205 26.81 12.1107 26.81Z" fill="#D48068"/>
<path d="M13.9404 32.08C14.9069 32.08 15.6904 31.2786 15.6904 30.29C15.6904 29.3014 14.9069 28.5 13.9404 28.5C12.9739 28.5 12.1904 29.3014 12.1904 30.29C12.1904 31.2786 12.9739 32.08 13.9404 32.08Z" fill="#D67469"/>
<path d="M17.8905 35.9799C18.9233 35.9799 19.7605 35.1248 19.7605 34.0699C19.7605 33.015 18.9233 32.1599 17.8905 32.1599C16.8577 32.1599 16.0205 33.015 16.0205 34.0699C16.0205 35.1248 16.8577 35.9799 17.8905 35.9799Z" fill="#D76969"/>
<path d="M30.8304 6.88735C31.5675 6.1327 31.566 4.93596 30.8271 4.21437C30.0883 3.49277 28.8919 3.51956 28.1548 4.27421C27.4178 5.02886 27.4193 6.2256 28.1581 6.94719C28.897 7.66879 30.0934 7.642 30.8304 6.88735Z" fill="#5CA97B"/>
<path d="M30.9593 12.2684C31.6577 11.5532 31.657 10.4198 30.9577 9.73679C30.2583 9.05378 29.1252 9.07983 28.4268 9.79497C27.7283 10.5101 27.729 11.6435 28.4284 12.3265C29.1277 13.0096 30.2608 12.9835 30.9593 12.2684Z" fill="#6BA779"/>
<path d="M28.926 17.1762C29.5859 16.5006 29.5859 15.4305 28.9261 14.7861C28.2662 14.1417 27.1964 14.167 26.5366 14.8426C25.8767 15.5182 25.8767 16.5883 26.5365 17.2327C27.1963 17.8772 28.2662 17.8519 28.926 17.1762Z" fill="#7BA677"/>
<path d="M24.3545 20.1772C24.9719 19.545 24.9696 18.5414 24.3493 17.9356C23.7289 17.3298 22.7256 17.3511 22.1082 17.9833C21.4907 18.6155 21.4931 19.6191 22.1134 20.2249C22.7337 20.8307 23.7371 20.8094 24.3545 20.1772Z" fill="#8AA474"/>
<path d="M13.952 17.0269C14.4923 16.4737 14.4914 15.5968 13.9501 15.0681C13.4088 14.5395 12.5321 14.5593 11.9919 15.1125C11.4516 15.6656 11.4525 16.5426 11.9938 17.0712C12.5351 17.5999 13.4118 17.58 13.952 17.0269Z" fill="#A9A270"/>
<path d="M9.38153 19.7278C9.87931 19.2181 9.87607 18.4077 9.37429 17.9176C8.87251 17.4275 8.0622 17.4434 7.56441 17.9531C7.06662 18.4628 7.06986 19.2733 7.57164 19.7633C8.07343 20.2534 8.88374 20.2375 9.38153 19.7278Z" fill="#B8A06E"/>
<path d="M7.02209 24.6059C7.48129 24.1357 7.4788 23.3886 7.01653 22.9371C6.55425 22.4856 5.80725 22.5008 5.34805 22.9709C4.88886 23.4411 4.89135 24.1883 5.35362 24.6397C5.81589 25.0912 6.56289 25.0761 7.02209 24.6059Z" fill="#C89F6B"/>
<path d="M7.11905 30.003C7.53966 29.5723 7.54112 28.8916 7.12231 28.4826C6.7035 28.0735 6.02301 28.0911 5.6024 28.5217C5.18179 28.9524 5.18033 29.6331 5.59914 30.0421C6.01795 30.4512 6.69844 30.4336 7.11905 30.003Z" fill="#D79D69"/>
<path d="M34.6143 18.8484C35.6688 18.8234 36.5039 17.9662 36.4794 16.9337C36.4549 15.9012 35.5802 15.0845 34.5256 15.1095C33.4711 15.1345 32.6361 15.9918 32.6605 17.0242C32.685 18.0567 33.5597 18.8734 34.6143 18.8484Z" fill="#CDC366"/>
<path d="M30.9522 22.7783C31.946 22.7547 32.733 21.9479 32.71 20.9762C32.6869 20.0044 31.8626 19.2358 30.8688 19.2593C29.875 19.2829 29.088 20.0897 29.111 21.0615C29.1341 22.0332 29.9584 22.8018 30.9522 22.7783Z" fill="#CEB866"/>
<path d="M26.0699 24.8683C27.003 24.8462 27.7418 24.0853 27.7201 23.1688C27.6984 22.2522 26.9243 21.5272 25.9913 21.5493C25.0582 21.5714 24.3194 22.3323 24.3411 23.2489C24.3628 24.1654 25.1369 24.8904 26.0699 24.8683Z" fill="#D0AC67"/>
<path d="M20.6972 23.8185C21.575 23.7977 22.2702 23.087 22.25 22.2313C22.2297 21.3755 21.5016 20.6986 20.6237 20.7194C19.7458 20.7402 19.0506 21.4508 19.0709 22.3066C19.0912 23.1624 19.8193 23.8393 20.6972 23.8185Z" fill="#D1A167"/>
<path d="M15.4624 14.2788C16.2188 14.2609 16.8178 13.6466 16.8002 12.9067C16.7827 12.1669 16.1553 11.5817 15.3989 11.5996C14.6425 11.6175 14.0435 12.2318 14.0611 12.9717C14.0786 13.7115 14.706 14.2967 15.4624 14.2788Z" fill="#D38B68"/>
<path d="M10.2994 13.0092C10.995 12.9927 11.5459 12.4288 11.5298 11.7497C11.5137 11.0706 10.9367 10.5335 10.2411 10.55C9.5454 10.5665 8.9945 11.1304 9.0106 11.8095C9.0267 12.4886 9.6037 13.0257 10.2994 13.0092Z" fill="#D48068"/>
<path d="M5.19736 14.8593C5.83229 14.8442 6.33502 14.3262 6.32023 13.7023C6.30544 13.0785 5.77873 12.5849 5.1438 12.5999C4.50886 12.615 4.00613 13.133 4.02092 13.7569C4.03571 14.3808 4.56242 14.8743 5.19736 14.8593Z" fill="#D67469"/>
<path d="M1.50503 18.7892C2.07923 18.7755 2.53389 18.308 2.52054 17.7448C2.50719 17.1817 2.03088 16.7362 1.45668 16.7498C0.882476 16.7634 0.427815 17.2309 0.441166 17.7941C0.454517 18.3573 0.930824 18.8028 1.50503 18.7892Z" fill="#D76969"/>
<path d="M31.6384 29.9955C32.3424 29.2397 32.2872 28.0442 31.5153 27.3252C30.7433 26.6062 29.5469 26.636 28.843 27.3918C28.139 28.1476 28.1941 29.3431 28.9661 30.0621C29.738 30.7811 30.9345 30.7513 31.6384 29.9955Z" fill="#D79D69"/>
<path d="M26.1085 30.2415C26.7673 29.5342 26.7149 28.4146 25.9914 27.7408C25.268 27.067 24.1475 27.0941 23.4887 27.8014C22.8299 28.5087 22.8824 29.6283 23.6058 30.3021C24.3293 30.9759 25.4498 30.9488 26.1085 30.2415Z" fill="#C89F6B"/>
<path d="M20.9957 28.321C21.6092 27.6622 21.5595 26.6186 20.8846 25.9899C20.2096 25.3613 19.165 25.3857 18.5514 26.0445C17.9378 26.7033 17.9876 27.7469 18.6625 28.3756C19.3375 29.0042 20.3821 28.9798 20.9957 28.321Z" fill="#B8A06E"/>
<path d="M17.7314 23.806C18.2998 23.1958 18.2528 22.228 17.6263 21.6445C16.9999 21.0611 16.0312 21.0828 15.4628 21.6931C14.8944 22.3034 14.9414 23.2711 15.5679 23.8546C16.1943 24.4381 17.163 24.4163 17.7314 23.806Z" fill="#A9A270"/>
<path d="M20.3171 13.3176C20.799 12.8003 20.7636 11.9842 20.2382 11.4949C19.7128 11.0055 18.8963 11.0281 18.4144 11.5455C17.9326 12.0628 17.9679 12.8789 18.4933 13.3683C19.0187 13.8576 19.8353 13.835 20.3171 13.3176Z" fill="#8AA474"/>
<path d="M17.3507 8.79509C17.7874 8.32626 17.7548 7.58611 17.2778 7.14191C16.8009 6.69772 16.0603 6.71768 15.6237 7.18651C15.187 7.65534 15.2196 8.39549 15.6965 8.83969C16.1734 9.28388 16.914 9.26392 17.3507 8.79509Z" fill="#7BA677"/>
<path d="M12.2583 6.55037C12.6498 6.13005 12.6199 5.46583 12.1915 5.06681C11.7631 4.66778 11.0984 4.68505 10.7069 5.10538C10.3154 5.52571 10.3453 6.18993 10.7738 6.58895C11.2022 6.98797 11.8668 6.9707 12.2583 6.55037Z" fill="#6BA779"/>
<path d="M6.70598 6.77099C7.0523 6.39916 7.02507 5.81088 6.64516 5.45703C6.26525 5.10318 5.67652 5.11776 5.3302 5.48959C4.98387 5.86141 5.0111 6.44969 5.39102 6.80355C5.77093 7.1574 6.35966 7.14282 6.70598 6.77099Z" fill="#5CA97B"/>
<path d="M18.0706 19.0701C18.8824 19.0701 19.5406 18.412 19.5406 17.6001C19.5406 16.7883 18.8824 16.1301 18.0706 16.1301C17.2587 16.1301 16.6006 16.7883 16.6006 17.6001C16.6006 18.412 17.2587 19.0701 18.0706 19.0701Z" fill="#CDC366"/>
</g>
<path d="M3.474 40.583C4.194 40.583 4.794 40.757 5.274 41.105C5.76 41.453 6.093 41.942 6.273 42.572H5.364C5.07 41.756 4.44 41.348 3.474 41.348C2.808 41.348 2.265 41.585 1.845 42.059C1.425 42.521 1.215 43.118 1.215 43.85C1.215 44.57 1.425 45.167 1.845 45.641C2.265 46.115 2.811 46.352 3.483 46.352C3.969 46.352 4.377 46.241 4.707 46.019C5.037 45.797 5.268 45.491 5.4 45.101H6.282C6.102 45.749 5.772 46.247 5.292 46.595C4.812 46.943 4.209 47.117 3.483 47.117C2.565 47.117 1.815 46.808 1.233 46.19C0.651 45.572 0.36 44.792 0.36 43.85C0.36 42.908 0.651 42.128 1.233 41.51C1.815 40.892 2.562 40.583 3.474 40.583ZM9.16685 42.365C9.83885 42.365 10.3879 42.587 10.8139 43.031C11.2459 43.469 11.4619 44.036 11.4619 44.732C11.4619 45.428 11.2459 45.995 10.8139 46.433C10.3879 46.877 9.83885 47.099 9.16685 47.099C8.48885 47.099 7.93385 46.877 7.50185 46.433C7.07585 45.989 6.86285 45.422 6.86285 44.732C6.86285 44.042 7.07585 43.475 7.50185 43.031C7.93385 42.587 8.48885 42.365 9.16685 42.365ZM9.17585 43.085C8.71985 43.085 8.35385 43.241 8.07785 43.553C7.80185 43.853 7.66385 44.246 7.66385 44.732C7.66385 45.206 7.80185 45.599 8.07785 45.911C8.35385 46.223 8.71985 46.379 9.17585 46.379C9.61985 46.379 9.97685 46.223 10.2469 45.911C10.5229 45.599 10.6609 45.206 10.6609 44.732C10.6609 44.246 10.5229 43.853 10.2469 43.553C9.97685 43.241 9.61985 43.085 9.17585 43.085ZM13.7571 42.365C14.1891 42.365 14.5431 42.497 14.8191 42.761C15.0951 43.019 15.2391 43.364 15.2511 43.796H14.4591C14.4531 43.322 14.2131 43.085 13.7391 43.085C13.5171 43.085 13.3461 43.142 13.2261 43.256C13.1061 43.364 13.0461 43.511 13.0461 43.697C13.0461 43.877 13.1031 44.012 13.2171 44.102C13.3371 44.192 13.5651 44.276 13.9011 44.354C14.4411 44.48 14.8221 44.648 15.0441 44.858C15.2721 45.062 15.3861 45.347 15.3861 45.713C15.3861 46.139 15.2391 46.478 14.9451 46.73C14.6511 46.976 14.2671 47.099 13.7931 47.099C13.2831 47.099 12.8811 46.967 12.5871 46.703C12.2991 46.439 12.1491 46.079 12.1371 45.623H12.9291C12.9351 46.127 13.2291 46.379 13.8111 46.379C14.0571 46.379 14.2491 46.325 14.3871 46.217C14.5251 46.103 14.5941 45.953 14.5941 45.767C14.5941 45.575 14.5281 45.428 14.3961 45.326C14.2641 45.218 14.0151 45.122 13.6491 45.038C13.1571 44.924 12.8001 44.768 12.5781 44.57C12.3621 44.372 12.2541 44.096 12.2541 43.742C12.2541 43.358 12.3861 43.034 12.6501 42.77C12.9201 42.5 13.2891 42.365 13.7571 42.365ZM21.1318 42.365C21.5998 42.365 21.9598 42.518 22.2118 42.824C22.4698 43.13 22.5988 43.544 22.5988 44.066V47H21.8248V44.192C21.8248 43.85 21.7468 43.586 21.5908 43.4C21.4408 43.214 21.2278 43.121 20.9518 43.121C20.6458 43.121 20.3968 43.247 20.2048 43.499C20.0128 43.745 19.9138 44.081 19.9078 44.507V47H19.1338V44.192C19.1338 43.85 19.0558 43.586 18.8998 43.4C18.7498 43.214 18.5368 43.121 18.2608 43.121C17.9488 43.121 17.6968 43.253 17.5048 43.517C17.3128 43.775 17.2168 44.126 17.2168 44.57V47H16.4428V42.464H17.1358L17.1808 43.085C17.2948 42.869 17.4598 42.695 17.6758 42.563C17.8978 42.431 18.1528 42.365 18.4408 42.365C19.0888 42.365 19.5298 42.653 19.7638 43.229C20.0578 42.653 20.5138 42.365 21.1318 42.365ZM25.8309 42.365C26.5029 42.365 27.0519 42.587 27.4779 43.031C27.9099 43.469 28.1259 44.036 28.1259 44.732C28.1259 45.428 27.9099 45.995 27.4779 46.433C27.0519 46.877 26.5029 47.099 25.8309 47.099C25.1529 47.099 24.5979 46.877 24.1659 46.433C23.7399 45.989 23.5269 45.422 23.5269 44.732C23.5269 44.042 23.7399 43.475 24.1659 43.031C24.5979 42.587 25.1529 42.365 25.8309 42.365ZM25.8399 43.085C25.3839 43.085 25.0179 43.241 24.7419 43.553C24.4659 43.853 24.3279 44.246 24.3279 44.732C24.3279 45.206 24.4659 45.599 24.7419 45.911C25.0179 46.223 25.3839 46.379 25.8399 46.379C26.2839 46.379 26.6409 46.223 26.9109 45.911C27.1869 45.599 27.3249 45.206 27.3249 44.732C27.3249 44.246 27.1869 43.853 26.9109 43.553C26.6409 43.241 26.2839 43.085 25.8399 43.085ZM30.4212 42.365C30.8532 42.365 31.2072 42.497 31.4832 42.761C31.7592 43.019 31.9032 43.364 31.9152 43.796H31.1232C31.1172 43.322 30.8772 43.085 30.4032 43.085C30.1812 43.085 30.0102 43.142 29.8902 43.256C29.7702 43.364 29.7102 43.511 29.7102 43.697C29.7102 43.877 29.7672 44.012 29.8812 44.102C30.0012 44.192 30.2292 44.276 30.5652 44.354C31.1052 44.48 31.4862 44.648 31.7082 44.858C31.9362 45.062 32.0502 45.347 32.0502 45.713C32.0502 46.139 31.9032 46.478 31.6092 46.73C31.3152 46.976 30.9312 47.099 30.4572 47.099C29.9472 47.099 29.5452 46.967 29.2512 46.703C28.9632 46.439 28.8132 46.079 28.8012 45.623H29.5932C29.5992 46.127 29.8932 46.379 30.4752 46.379C30.7212 46.379 30.9132 46.325 31.0512 46.217C31.1892 46.103 31.2582 45.953 31.2582 45.767C31.2582 45.575 31.1922 45.428 31.0602 45.326C30.9282 45.218 30.6792 45.122 30.3132 45.038C29.8212 44.924 29.4642 44.768 29.2422 44.57C29.0262 44.372 28.9182 44.096 28.9182 43.742C28.9182 43.358 29.0502 43.034 29.3142 42.77C29.5842 42.5 29.9532 42.365 30.4212 42.365ZM36.9773 42.365C37.4453 42.365 37.8083 42.518 38.0663 42.824C38.3243 43.13 38.4533 43.544 38.4533 44.066V47H37.6703V44.192C37.6703 43.85 37.5923 43.586 37.4363 43.4C37.2803 43.214 37.0643 43.121 36.7883 43.121C36.4763 43.121 36.2213 43.253 36.0233 43.517C35.8313 43.775 35.7353 44.126 35.7353 44.57V47H34.9613V42.464H35.6543L35.6993 43.085C35.9513 42.605 36.3773 42.365 36.9773 42.365ZM41.5694 42.365C42.1994 42.365 42.7004 42.566 43.0724 42.968C43.4444 43.37 43.6304 43.937 43.6304 44.669V45.038H40.1834C40.2134 45.452 40.3544 45.779 40.6064 46.019C40.8644 46.259 41.1914 46.379 41.5874 46.379C42.2174 46.379 42.6254 46.133 42.8114 45.641H43.5854C43.4414 46.103 43.1954 46.463 42.8474 46.721C42.5054 46.973 42.0794 47.099 41.5694 47.099C40.9214 47.099 40.3964 46.883 39.9944 46.451C39.5864 46.013 39.3824 45.443 39.3824 44.741C39.3824 44.045 39.5834 43.478 39.9854 43.04C40.3934 42.59 40.9214 42.365 41.5694 42.365ZM42.4874 43.427C42.2534 43.199 41.9474 43.085 41.5694 43.085C41.1914 43.085 40.8794 43.202 40.6334 43.436C40.3874 43.664 40.2404 43.967 40.1924 44.345H42.8474C42.8414 43.961 42.7214 43.655 42.4874 43.427ZM44.978 41.33H45.761L45.752 42.464H46.913V43.184H45.743L45.725 45.614C45.725 45.884 45.77 46.076 45.86 46.19C45.956 46.298 46.127 46.352 46.373 46.352C46.571 46.352 46.751 46.325 46.913 46.271V46.964C46.745 47.03 46.52 47.063 46.238 47.063C45.8 47.063 45.473 46.958 45.257 46.748C45.047 46.538 44.945 46.208 44.951 45.758L44.969 43.184H44.123V42.464H44.969L44.978 41.33ZM53.1285 42.464H53.9565L52.5165 47H51.7335L50.6355 43.76L49.5285 47H48.7725L47.3325 42.464H48.1605L49.1055 45.632L49.1955 46.046L49.2945 45.632L50.3115 42.464H50.9775L51.9945 45.632L52.0935 46.046L52.1835 45.632L53.1285 42.464ZM56.6278 42.365C57.2998 42.365 57.8488 42.587 58.2748 43.031C58.7068 43.469 58.9228 44.036 58.9228 44.732C58.9228 45.428 58.7068 45.995 58.2748 46.433C57.8488 46.877 57.2998 47.099 56.6278 47.099C55.9498 47.099 55.3948 46.877 54.9628 46.433C54.5368 45.989 54.3238 45.422 54.3238 44.732C54.3238 44.042 54.5368 43.475 54.9628 43.031C55.3948 42.587 55.9498 42.365 56.6278 42.365ZM56.6368 43.085C56.1808 43.085 55.8148 43.241 55.5388 43.553C55.2628 43.853 55.1248 44.246 55.1248 44.732C55.1248 45.206 55.2628 45.599 55.5388 45.911C55.8148 46.223 56.1808 46.379 56.6368 46.379C57.0808 46.379 57.4378 46.223 57.7078 45.911C57.9838 45.599 58.1218 45.206 58.1218 44.732C58.1218 44.246 57.9838 43.853 57.7078 43.553C57.4378 43.241 57.0808 43.085 56.6368 43.085ZM62.0911 42.419V43.193C61.7191 43.193 61.4131 43.304 61.1731 43.526C60.9091 43.766 60.7711 44.123 60.7591 44.597V47H59.9851V42.464H60.6781L60.7321 43.256C60.8221 43.01 60.9841 42.809 61.2181 42.653C61.4581 42.497 61.7491 42.419 62.0911 42.419ZM63.0437 40.43H63.8177V44.588L65.5187 42.464H66.4637L64.9967 44.345L66.6977 47H65.8067L64.4567 44.939L63.8177 45.713V47H63.0437V40.43ZM71.1622 42.365C71.7922 42.365 72.2932 42.566 72.6652 42.968C73.0372 43.37 73.2232 43.937 73.2232 44.669V45.038H69.7762C69.8062 45.452 69.9472 45.779 70.1992 46.019C70.4572 46.259 70.7842 46.379 71.1802 46.379C71.8102 46.379 72.2182 46.133 72.4042 45.641H73.1782C73.0342 46.103 72.7882 46.463 72.4402 46.721C72.0982 46.973 71.6722 47.099 71.1622 47.099C70.5142 47.099 69.9892 46.883 69.5872 46.451C69.1792 46.013 68.9752 45.443 68.9752 44.741C68.9752 44.045 69.1762 43.478 69.5782 43.04C69.9862 42.59 70.5142 42.365 71.1622 42.365ZM72.0802 43.427C71.8462 43.199 71.5402 43.085 71.1622 43.085C70.7842 43.085 70.4722 43.202 70.2262 43.436C69.9802 43.664 69.8332 43.967 69.7852 44.345H72.4402C72.4342 43.961 72.3142 43.655 72.0802 43.427ZM77.0098 42.464H77.9278L76.4518 44.66L78.0268 47H77.1088L75.9298 45.272L74.7598 47H73.8418L75.4078 44.66L73.9408 42.464H74.8588L75.9298 44.048L77.0098 42.464ZM81.2734 42.365C81.9094 42.365 82.4194 42.59 82.8034 43.04C83.1934 43.484 83.3884 44.048 83.3884 44.732C83.3884 45.41 83.1904 45.974 82.7944 46.424C82.4044 46.874 81.8944 47.099 81.2644 47.099C80.9224 47.099 80.6194 47.036 80.3554 46.91C80.0974 46.778 79.8994 46.601 79.7614 46.379V48.935H78.9784V42.464H79.6804L79.7164 43.13C80.0644 42.62 80.5834 42.365 81.2734 42.365ZM81.1564 43.094C80.7664 43.094 80.4334 43.241 80.1574 43.535C79.8814 43.829 79.7434 44.213 79.7434 44.687V44.732C79.7434 45.224 79.8814 45.617 80.1574 45.911C80.4394 46.211 80.7694 46.361 81.1474 46.361C81.5674 46.361 81.9124 46.211 82.1824 45.911C82.4524 45.605 82.5874 45.212 82.5874 44.732C82.5874 44.246 82.4554 43.853 82.1914 43.553C81.9334 43.247 81.5884 43.094 81.1564 43.094ZM84.4268 40.43H85.2008V47H84.4268V40.43ZM88.5321 42.365C89.2041 42.365 89.7531 42.587 90.1791 43.031C90.6111 43.469 90.8271 44.036 90.8271 44.732C90.8271 45.428 90.6111 45.995 90.1791 46.433C89.7531 46.877 89.2041 47.099 88.5321 47.099C87.8541 47.099 87.2991 46.877 86.8671 46.433C86.4411 45.989 86.2281 45.422 86.2281 44.732C86.2281 44.042 86.4411 43.475 86.8671 43.031C87.2991 42.587 87.8541 42.365 88.5321 42.365ZM88.5411 43.085C88.0851 43.085 87.7191 43.241 87.4431 43.553C87.1671 43.853 87.0291 44.246 87.0291 44.732C87.0291 45.206 87.1671 45.599 87.4431 45.911C87.7191 46.223 88.0851 46.379 88.5411 46.379C88.9851 46.379 89.3421 46.223 89.6121 45.911C89.8881 45.599 90.0261 45.206 90.0261 44.732C90.0261 44.246 89.8881 43.853 89.6121 43.553C89.3421 43.241 88.9851 43.085 88.5411 43.085ZM93.9954 42.419V43.193C93.6234 43.193 93.3174 43.304 93.0774 43.526C92.8134 43.766 92.6754 44.123 92.6634 44.597V47H91.8894V42.464H92.5824L92.6364 43.256C92.7264 43.01 92.8884 42.809 93.1224 42.653C93.3624 42.497 93.6534 42.419 93.9954 42.419ZM96.6241 42.365C97.2541 42.365 97.7551 42.566 98.1271 42.968C98.4991 43.37 98.6851 43.937 98.6851 44.669V45.038H95.2381C95.2681 45.452 95.4091 45.779 95.6611 46.019C95.9191 46.259 96.2461 46.379 96.6421 46.379C97.2721 46.379 97.6801 46.133 97.8661 45.641H98.6401C98.4961 46.103 98.2501 46.463 97.9021 46.721C97.5601 46.973 97.1341 47.099 96.6241 47.099C95.9761 47.099 95.4511 46.883 95.0491 46.451C94.6411 46.013 94.4371 45.443 94.4371 44.741C94.4371 44.045 94.6381 43.478 95.0401 43.04C95.4481 42.59 95.9761 42.365 96.6241 42.365ZM97.5421 43.427C97.3081 43.199 97.0021 43.085 96.6241 43.085C96.2461 43.085 95.9341 43.202 95.6881 43.436C95.4421 43.664 95.2951 43.967 95.2471 44.345H97.9021C97.8961 43.961 97.7761 43.655 97.5421 43.427ZM101.941 42.419V43.193C101.569 43.193 101.263 43.304 101.023 43.526C100.759 43.766 100.621 44.123 100.609 44.597V47H99.8347V42.464H100.528L100.582 43.256C100.672 43.01 100.834 42.809 101.068 42.653C101.308 42.497 101.599 42.419 101.941 42.419Z" fill="#8F8F96"/>
<defs>
<clipPath id="clip0_1985_4015">
<rect width="104" height="36" fill="white"/>
</clipPath>
</defs>
</svg>
