<svg width="10" height="10" viewBox="0 0 10 10" fill="none" xmlns="http://www.w3.org/2000/svg">
<circle cx="5" cy="5" r="5" fill="#4F4F5A"/>
<path d="M7.14952 3.519C7.14952 4.191 6.95702 4.7265 6.57202 5.1255C6.50902 5.1955 6.36552 5.3355 6.14152 5.5455C5.91752 5.7485 5.76002 5.92 5.66902 6.06C5.58502 6.193 5.54302 6.3435 5.54302 6.5115V6.7635H4.16752V6.4485C4.16752 6.1755 4.22352 5.9305 4.33552 5.7135C4.45452 5.4965 4.59452 5.3145 4.75552 5.1675C4.92352 5.0205 5.08802 4.877 5.24902 4.737C5.41702 4.59 5.55702 4.4185 5.66902 4.2225C5.78802 4.0265 5.84752 3.8095 5.84752 3.5715C5.84752 3.2635 5.76702 3.0255 5.60602 2.8575C5.44502 2.6825 5.22452 2.595 4.94452 2.595C4.65052 2.595 4.41602 2.686 4.24102 2.868C4.06602 3.05 3.97852 3.3055 3.97852 3.6345H2.68702C2.69402 2.9765 2.91102 2.4585 3.33802 2.0805C3.76502 1.6955 4.29352 1.503 4.92352 1.503C5.55352 1.503 6.08202 1.685 6.50902 2.049C6.93602 2.406 7.14952 2.896 7.14952 3.519ZM4.86052 7.467C5.09152 7.467 5.28752 7.5475 5.44852 7.7085C5.61652 7.8625 5.70052 8.055 5.70052 8.286C5.70052 8.517 5.61652 8.713 5.44852 8.874C5.28752 9.035 5.09152 9.1155 4.86052 9.1155C4.61552 9.1155 4.41252 9.0385 4.25152 8.8845C4.09052 8.7235 4.01002 8.524 4.01002 8.286C4.01002 8.048 4.09052 7.852 4.25152 7.698C4.41252 7.544 4.61552 7.467 4.86052 7.467Z" fill="#0E0E16"/>
</svg>
