<svg width="14" height="12" viewBox="0 0 14 12" xmlns="http://www.w3.org/2000/svg">
  <path d="M14.0049 1.59721C13.6195 2.1551 13.1338 2.64173 12.571 3.03405C12.571 3.15379 12.571 3.27353 12.571 3.39327C12.571 7.06413 9.68203 11.2959 4.39944 11.2959C2.77002 11.2959 0.663175 10.746 0 10.0481C0.227685 10.074 0.456724 10.0872 0.685981 10.0875C1.97933 10.0895 3.23575 9.67054 4.25279 8.89799C3.65346 8.88688 3.07268 8.69506 2.59156 8.34934C2.11044 8.00363 1.753 7.52126 1.56913 6.96961C2.0038 7.01451 2.44291 6.99806 2.87267 6.92077C2.87267 6.92077 0.627326 6.54895 0.568667 4.16368C0.966133 4.38334 1.41447 4.50255 1.87221 4.51028C1.87221 4.51028 0.568653 3.73987 0.594723 2.19905C0.6045 1.29157 0.982527 0.803176 0.982527 0.803176C1.70404 1.65959 2.60317 2.36029 3.62193 2.86014C4.64068 3.35998 5.75647 3.64786 6.89734 3.70521C6.85976 3.49677 6.83528 3.28632 6.82402 3.07502C6.82484 2.51843 6.99848 1.97489 7.32246 1.51482C7.64644 1.05475 8.10582 0.699349 8.64111 0.494628C9.17641 0.289908 9.76295 0.245305 10.3248 0.366611C10.8866 0.487916 11.3978 0.769534 11.7921 1.17499C12.4353 1.0527 13.052 0.824629 13.6154 0.500686C13.3661 1.47118 12.3526 2.03836 12.3526 2.03836C12.9219 1.96609 13.478 1.81761 14.0049 1.59721Z" />
</svg>
