<svg width="20" height="20" viewBox="0 0 20 20" fill="none" xmlns="http://www.w3.org/2000/svg">
<path d="M6.56179 11.4063L6.56199 11.406C7.85658 9.82573 8.52517 8.41967 8.5256 7.22321C8.56515 6.35087 8.24032 5.49879 7.62041 4.84578L7.62045 4.84574L7.61868 4.84405C7.2989 4.53855 6.91315 4.30022 6.48722 4.14471C6.06202 3.98946 5.60638 3.92025 5.15046 3.94158C4.64466 3.91863 4.13956 4.00013 3.67135 4.18042C3.20242 4.36098 2.78198 4.63619 2.44034 4.98648L2.44032 4.98645L2.43901 4.98789C1.7577 5.74307 1.40585 6.7101 1.45444 7.69679C1.45516 7.77882 1.52188 7.84509 1.60408 7.84509H3.16277C3.25918 7.84509 3.33734 7.76693 3.33734 7.67053H3.33744L3.33723 7.66733C3.30034 7.09105 3.46878 6.51921 3.81693 6.04063C3.97319 5.85803 4.17463 5.71286 4.40443 5.61771C4.63484 5.52231 4.88675 5.48013 5.13866 5.49484L5.13865 5.49497L5.1423 5.49492C5.3508 5.49191 5.55682 5.53633 5.74244 5.62419C5.92789 5.71196 6.08719 5.84031 6.20681 5.99788C6.50317 6.40686 6.64962 6.89359 6.62494 7.38567L6.62486 7.38567L6.62487 7.38845C6.62731 7.83502 6.5289 8.27718 6.33592 8.68628C6.02939 9.26937 5.66117 9.82258 5.2367 10.3377L5.23652 10.3379L1.67071 14.7144L1.65948 14.7282V14.7459V15.675C1.65948 15.8683 1.81618 16.025 2.00948 16.025H8.63025C8.82355 16.025 8.98025 15.8683 8.98025 15.675V14.8217C8.98025 14.6284 8.82355 14.4717 8.63025 14.4717H4.01783L6.56179 11.4063Z" fill="white" stroke="white" stroke-width="0.1"/>
<path d="M17.3123 5.43754L17.3125 5.43743L17.3095 5.43453C16.8611 4.98735 16.3133 4.63706 15.7048 4.40799C15.0967 4.17906 14.4423 4.07664 13.7875 4.10781H10.9953C10.802 4.10781 10.6453 4.26451 10.6453 4.45781V15.7C10.6453 15.8933 10.802 16.05 10.9953 16.05H13.6088C14.2871 16.0919 14.9671 15.9968 15.6023 15.7711C16.2381 15.5452 16.8141 15.1938 17.2909 14.7408L17.291 14.7409L17.294 14.7376C18.2 13.7077 18.6539 12.3955 18.5634 11.0655V9.12546C18.646 7.7943 18.2004 6.48177 17.3123 5.43754ZM13.646 14.4303H12.5728V5.71092H13.7887V5.71102L13.7919 5.71082C14.1928 5.68492 14.5946 5.74503 14.9665 5.88643C15.3373 6.02741 15.6682 6.24537 15.9342 6.52341C16.4792 7.28054 16.7327 8.18682 16.6539 9.09467L16.6537 9.09466V9.09899V11.117H16.6536L16.6538 11.1198C16.7043 12.0044 16.4458 12.8806 15.9166 13.6175C15.6317 13.9047 15.2797 14.1276 14.8874 14.2687C14.4939 14.4102 14.0706 14.4656 13.6502 14.4305L13.6502 14.4303H13.646Z" fill="white" stroke="white" stroke-width="0.1"/>
</svg>
