<svg width="20" height="20" viewBox="0 0 20 20" fill="none" xmlns="http://www.w3.org/2000/svg">
<path d="M7.57852 4.86884L7.57861 4.86876L7.57612 4.86627C7.27511 4.56545 6.91254 4.32991 6.51209 4.1749C6.11216 4.02009 5.68336 3.94906 5.25352 3.96638C4.81978 3.95491 4.38846 4.03353 3.9882 4.19708C3.58743 4.36083 3.22694 4.60598 2.93079 4.91628C2.62512 5.23632 2.38707 5.612 2.23031 6.02191C2.07366 6.43156 2.00126 6.8673 2.01731 7.30427C2.01785 7.39933 2.09507 7.47622 2.19025 7.47622H3.62592C3.72143 7.47622 3.79886 7.39879 3.79886 7.30327H3.79893L3.7988 7.30071C3.77457 6.82927 3.91624 6.36377 4.20052 5.98128C4.32443 5.82516 4.4854 5.70055 4.66976 5.61823C4.85436 5.53581 5.05681 5.49827 5.25965 5.50894L5.25965 5.50901H5.26228C5.74301 5.50901 6.09222 5.65862 6.32316 5.95588C6.55605 6.25567 6.67522 6.71381 6.67522 7.34427H6.67513L6.67532 7.34731C6.7044 7.82446 6.55336 8.29562 6.25044 8.67189C6.09595 8.83296 5.90647 8.95851 5.69573 9.03932C5.48434 9.12038 5.25697 9.15433 5.03031 9.13865L5.03032 9.13854H5.02686H4.3427C4.12178 9.13854 3.9427 9.31762 3.9427 9.53854V10.273C3.9427 10.4939 4.12178 10.673 4.3427 10.673H4.99322C5.6245 10.673 6.08419 10.8308 6.38667 11.1424C6.68944 11.4543 6.84339 11.9291 6.84339 12.582H6.84323L6.84354 12.5859C6.8854 13.1141 6.73131 13.6396 6.4091 14.0666C6.27017 14.2222 6.09666 14.345 5.90166 14.4257C5.70603 14.5066 5.49398 14.543 5.28167 14.532L5.28168 14.5318L5.27639 14.532C5.06846 14.5432 4.8608 14.5061 4.67059 14.4237C4.48062 14.3414 4.31355 14.2163 4.18305 14.0589C3.88632 13.6759 3.73838 13.203 3.76517 12.7241L3.76525 12.7241V12.7213C3.76525 12.6258 3.68782 12.5484 3.5923 12.5484H2.15664C2.06164 12.5484 1.98453 12.625 1.9837 12.7198C1.93271 13.6124 2.24577 14.4884 2.85431 15.1566L2.85424 15.1567L2.85645 15.1588C3.16842 15.4617 3.54099 15.6985 3.95088 15.8546C4.36023 16.0106 4.79809 16.0826 5.23718 16.0664C5.68442 16.0807 6.12977 16.003 6.5442 15.8382C6.95918 15.6732 7.33385 15.4247 7.64372 15.1088L7.64375 15.1088L7.64508 15.1074C8.2818 14.4049 8.61239 13.4876 8.56623 12.5509C8.6322 11.9946 8.5217 11.4319 8.24968 10.9388C7.99106 10.4699 7.59836 10.0855 7.12042 9.83153C7.47434 9.6006 7.77075 9.29457 7.9871 8.9358C8.27634 8.45933 8.42981 7.91607 8.43155 7.36225C8.48656 6.45492 8.18096 5.56197 7.57852 4.86884Z" fill="white" stroke="white" stroke-width="0.1"/>
<path d="M16.8702 5.41911L16.8703 5.41901L16.8676 5.41622C16.4444 4.97466 15.9275 4.62864 15.353 4.40232C14.7789 4.17616 14.1611 4.07495 13.5428 4.10572H11.1182C10.8144 4.10572 10.5682 4.35197 10.5682 4.65572V15.3443C10.5682 15.648 10.8144 15.8943 11.1182 15.8943H13.3995C14.0398 15.9351 14.6816 15.8408 15.2812 15.6178C15.8812 15.3947 16.425 15.0479 16.8751 14.6011L16.8753 14.6012L16.8784 14.5975C17.7262 13.5777 18.1505 12.2844 18.067 10.9738V9.05876C18.1401 7.74324 17.714 6.44765 16.8702 5.41911ZM16.235 11.041H16.2349L16.2351 11.0443C16.2927 11.9185 16.048 12.7864 15.5399 13.5093C15.2727 13.792 14.9424 14.0114 14.5744 14.1504C14.2053 14.2899 13.8082 14.3448 13.4138 14.3108L13.4139 14.3107H13.4096H12.4002V5.68933H13.5441V5.68944L13.5475 5.68921C13.9248 5.6637 14.3031 5.72291 14.6533 5.86224C15.0023 6.00113 15.314 6.21593 15.5647 6.49012C16.0757 7.23833 16.3119 8.13296 16.2352 9.02851L16.235 9.0285V9.03278V11.041Z" fill="white" stroke="white" stroke-width="0.1"/>
</svg>
