<svg width="18" height="20" viewBox="0 0 18 20" fill="none" xmlns="http://www.w3.org/2000/svg">
<g clip-path="url(#clip0_5175_1707)">
<path d="M0.921889 5.80601V14.1939C0.921121 14.3156 0.952437 14.4355 1.01278 14.5418C1.07313 14.648 1.16044 14.737 1.26615 14.7999L8.6432 18.9939C8.75013 19.0534 8.87082 19.0846 8.9936 19.0846C9.11637 19.0846 9.23708 19.0534 9.34401 18.9939L16.7211 14.7999C16.8299 14.7394 16.9204 14.6513 16.9831 14.5448C17.0457 14.4382 17.0784 14.3171 17.0776 14.1939V5.80601C17.0784 5.68283 17.0457 5.56168 16.9831 5.45512C16.9204 5.34856 16.8299 5.26046 16.7211 5.19995L9.34401 1.00599C9.23708 0.946508 9.11637 0.915283 8.9936 0.915283C8.87082 0.915283 8.75013 0.946508 8.6432 1.00599L1.26615 5.19995C1.16044 5.26293 1.07313 5.35187 1.01278 5.45811C0.952437 5.56435 0.921121 5.68425 0.921889 5.80601V5.80601Z" stroke="white" stroke-width="1.3" stroke-miterlimit="10"/>
<path d="M0.921875 5.40601L8.99974 9.99995L17.0776 5.40601" stroke="white" stroke-miterlimit="10"/>
<path d="M9 10V19.1879" stroke="white" stroke-miterlimit="10"/>
</g>
<defs>
<clipPath id="clip0_5175_1707">
<rect width="18" height="20" fill="white"/>
</clipPath>
</defs>
</svg>
