<svg width="12" height="12" viewBox="0 0 12 12" fill="none" xmlns="http://www.w3.org/2000/svg">
<g clip-path="url(#clip0_5130_31185)">
<g clip-path="url(#clip1_5130_31185)">
<path d="M12.4275 0.713379L8.37701 3.95432C8.06233 4.20853 7.66366 4.33698 7.25882 4.31462C6.85398 4.29226 6.47213 4.12068 6.1877 3.83338L5.1537 2.81757C4.86877 2.5366 4.49086 2.36818 4.0903 2.34371C3.68974 2.31924 3.29395 2.44037 2.97656 2.68455L-0.441406 5.33292"  stroke-width="2" stroke-miterlimit="10"/>
<path d="M-0.441406 8.92651L3.43878 5.91534C3.63074 5.76844 3.8698 5.69603 4.11153 5.71161C4.35326 5.72718 4.58108 5.8297 4.75236 6L4.87397 6.12092C5.51376 6.77697 6.37906 7.16882 7.29683 7.21814C8.21461 7.26746 9.11733 6.97063 9.82453 6.38697L12.4275 4.29488V13.0122H-0.441406V8.92651Z" />
</g>
</g>
<defs>
<clipPath id="clip0_5130_31185">
<rect width="12" height="12"/>
</clipPath>
<clipPath id="clip1_5130_31185">
<rect width="14" height="13" transform="translate(-1)"/>
</clipPath>
</defs>
</svg>
