<svg width="16" height="16" viewBox="0 0 16 16" fill="none" xmlns="http://www.w3.org/2000/svg">
<g clip-path="url(#clip0_7276_12971)">
<path fill-rule="evenodd" clip-rule="evenodd" d="M10.9803 10.9794C13.7934 10.7365 16.0009 8.37605 16.0009 5.5C16.0009 2.46243 13.5384 0 10.5009 0C7.62483 0 5.26438 2.20752 5.02148 5.02061C5.17947 5.00696 5.33936 5 5.50088 5C8.53845 5 11.0009 7.46243 11.0009 10.5C11.0009 10.6615 10.9939 10.8214 10.9803 10.9794Z" fill="#9F9FA5"/>
<circle cx="5.5" cy="10.5" r="5.5" fill="#BFBFC3"/>
<path fill-rule="evenodd" clip-rule="evenodd" d="M5.0206 5.0206C5.17859 5.00696 5.33848 5 5.5 5C8.53757 5 11 7.46243 11 10.5C11 10.6615 10.993 10.8214 10.9794 10.9794C10.8214 10.993 10.6615 11 10.5 11C7.46243 11 5 8.53757 5 5.5C5 5.33848 5.00696 5.17859 5.0206 5.0206Z" fill="white"/>
</g>
<defs>
<clipPath id="clip0_7276_12971">
<rect width="16" height="16" fill="white"/>
</clipPath>
</defs>
</svg>
