<svg width="20" height="20" viewBox="0 0 20 20" fill="none" xmlns="http://www.w3.org/2000/svg">
<circle cx="10" cy="10" r="9.5" stroke="#53505C"/>
<path opacity="0.7" d="M10.7342 5.4485C10.7342 5.6885 10.6442 5.8935 10.4642 6.0635C10.2942 6.2335 10.0842 6.3185 9.83423 6.3185C9.58423 6.3185 9.37423 6.2335 9.20423 6.0635C9.03423 5.8935 8.94923 5.6885 8.94923 5.4485C8.94923 5.1985 9.03423 4.9885 9.20423 4.8185C9.37423 4.6485 9.58423 4.5635 9.83423 4.5635C10.0842 4.5635 10.2942 4.6485 10.4642 4.8185C10.6442 4.9885 10.7342 5.1985 10.7342 5.4485ZM9.18923 7.7735H10.4792V15.3335H9.18923V7.7735Z" fill="white"/>
</svg>
