<svg width="16" height="16" viewBox="0 0 16 16" fill="none" xmlns="http://www.w3.org/2000/svg">
<g id="?">
<circle id="Ellipse 1128" cx="8" cy="8" r="8" fill="#4F4F5A"/>
<path id="i" d="M7.12546 6.69829H8.99777V13.0003H7.12546V6.69829ZM8.06161 2.44336C8.36886 2.44336 8.63291 2.55378 8.85374 2.77461C9.08418 2.98585 9.1994 3.24509 9.1994 3.55234C9.1994 3.86919 9.08898 4.13323 8.86814 4.34447C8.64731 4.5557 8.37846 4.66132 8.06161 4.66132C7.74476 4.66132 7.47592 4.5557 7.25508 4.34447C7.03425 4.13323 6.92383 3.86919 6.92383 3.55234C6.92383 3.24509 7.03425 2.98585 7.25508 2.77461C7.47592 2.55378 7.74476 2.44336 8.06161 2.44336Z" fill="#0E0E16"/>
</g>
</svg>
