<svg width="75" height="62" viewBox="0 0 75 62" fill="none" xmlns="http://www.w3.org/2000/svg">
<path d="M1.23334 0.00206303C0.434577 -0.00417352 0.00370025 0.498788 0.00370025 1.29758V60C0.00370025 61.1046 0.899131 62 2.0037 62H73C74.1046 62 75 61.1046 75 60V11.3422C75 10.2376 74.1046 9.34218 73 9.34218H35.3205C31.1665 9.34218 26.2833 7.89564 21.9205 0.151846C9.50654 0.151846 3.55663 0.0202026 1.23334 0.00206303Z" fill="#4F4F5A"/>
<path d="M27.3746 18.4255L33.5527 24.5455C34.2246 27.6873 29.7344 32.22 26.5552 31.5327L20.4098 25.3636C20.1349 26.3213 19.997 27.3129 20.0001 28.3091C19.9944 29.6531 20.2567 30.9847 20.7715 32.2264C21.2864 33.4682 22.0436 34.5952 22.999 35.5418C24.0484 36.5942 25.3147 37.4057 26.7099 37.92C28.1051 38.4343 29.5957 38.6391 31.0782 38.52C31.8331 38.4632 32.5914 38.5697 33.3013 38.8324C34.0112 39.095 34.6559 39.5076 35.1915 40.0418L47.679 52.4945C48.1277 52.9604 48.6641 53.3333 49.2575 53.5916C49.8509 53.8499 50.4895 53.9887 51.1368 54C52.1024 53.9896 53.0435 53.6955 53.8427 53.1543C54.642 52.6132 55.2639 51.849 55.631 50.9572C55.998 50.0654 56.0939 49.0853 55.9067 48.1394C55.7195 47.1935 55.2574 46.3236 54.5782 45.6382L42.0908 33.1855C41.5497 32.6509 41.1316 32.0052 40.8656 31.2931C40.5996 30.581 40.492 29.8196 40.5503 29.0618C40.6635 27.6508 40.4827 26.2317 40.0191 24.8939C39.5555 23.5562 38.8193 22.329 37.857 21.2896C36.8946 20.2502 35.7269 19.4213 34.4276 18.8551C33.1283 18.2889 31.7256 17.9978 30.308 18C29.3149 18.0013 28.327 18.1446 27.3746 18.4255ZM52.7756 49.0909C52.7756 49.5249 52.6029 49.9411 52.2956 50.248C51.9882 50.5549 51.5714 50.7273 51.1368 50.7273C50.8127 50.7273 50.4958 50.6313 50.2263 50.4515C49.9568 50.2717 49.7468 50.0161 49.6228 49.7171C49.4987 49.4181 49.4663 49.0891 49.5295 48.7717C49.5927 48.4542 49.7488 48.1627 49.978 47.9338C50.2072 47.705 50.4992 47.5491 50.8171 47.486C51.135 47.4228 51.4645 47.4553 51.7639 47.5791C52.0634 47.703 52.3193 47.9127 52.4994 48.1818C52.6795 48.4509 52.7756 48.7673 52.7756 49.0909Z" fill="#25252E"/>
</svg>
