<svg width="14" height="12" viewBox="0 0 14 12" xmlns="http://www.w3.org/2000/svg">
  <path d="M1.05139 5.07749C1.62025 4.82465 11.4795 0.502307 12.2501 0.215291C12.8156 0.00344543 13.2985 -0.0785608 13.6259 0.0854483C13.7719 0.171731 13.8866 0.304772 13.9529 0.464443C14.0191 0.624115 14.0332 0.801737 13.993 0.970424C13.8541 2.46359 12.7329 10.0319 12.4915 10.7905C12.2897 11.4397 12.0715 11.9966 11.6613 11.9966C11.1904 11.984 10.7355 11.8177 10.3616 11.5217C9.9184 11.18 6.98149 9.16063 6.57468 8.89754C6.16788 8.63444 5.83711 8.08091 6.36959 7.53079C6.80947 7.06952 10.1367 3.73125 10.4211 3.43056C10.7055 3.12988 10.4211 2.74718 10.0904 3.0547C9.75962 3.36222 4.89451 6.70049 4.46786 6.97042C3.94172 7.27121 3.32462 7.35426 2.74144 7.20277C2.07997 7.01826 1.0051 6.67657 0.57184 6.5194C0.138578 6.36222 0.0029456 6.21872 0.0029456 5.95221C-0.000361744 5.57294 0.512292 5.31326 1.05139 5.07749Z"/>
</svg>
