<?xml version="1.0" encoding="utf-8"?>
<!-- Generator: Adobe Illustrator 25.4.1, SVG Export Plug-In . SVG Version: 6.00 Build 0)  -->
<svg version="1.1" id="Layer_1" xmlns="http://www.w3.org/2000/svg" xmlns:xlink="http://www.w3.org/1999/xlink" x="0px" y="0px"
	 viewBox="0 0 1700 701" style="enable-background:new 0 0 1700 701;" xml:space="preserve">
<style type="text/css">
	.st0{clip-path:url(#SVGID_00000120558285645543425590000003552273390225919383_);}
	.st1{opacity:0.4;}
	.st2{fill:#C4C4C4;}
	.st3{opacity:0.6;}
	.st4{opacity:0.3;}
	.st5{opacity:0.2;}
	.st6{opacity:0.7;}
	.st7{fill:#FFFFFF;}
	.st8{opacity:0.8;}
</style>
<g>
	<defs>
		<rect id="SVGID_1_" width="1700" height="701"/>
	</defs>
	<clipPath id="SVGID_00000152977837733580216250000007497929493189211029_">
		<use xlink:href="#SVGID_1_"  style="overflow:visible;"/>
	</clipPath>
	<g style="clip-path:url(#SVGID_00000152977837733580216250000007497929493189211029_);">
		<g class="st1">
			<circle class="st2" cx="200" cy="117" r="1"/>
		</g>
		<g class="st1">
			<circle class="st2" cx="814.7" cy="278.1" r="1.5"/>
		</g>
		<g class="st3">
			<circle class="st2" cx="1667.9" cy="264.5" r="1.5"/>
		</g>
		<g class="st1">
			<circle class="st2" cx="1294.1" cy="241.1" r="1.5"/>
		</g>
		<g class="st4">
			<circle class="st2" cx="82.8" cy="221.5" r="1.5"/>
		</g>
		<g class="st1">
			<circle class="st2" cx="676" cy="266" r="1"/>
		</g>
		<g class="st1">
			<circle class="st2" cx="1535.5" cy="221.6" r="1"/>
		</g>
		<g class="st1">
			<circle class="st2" cx="1155.3" cy="229" r="1"/>
		</g>
		<g class="st1">
			<circle class="st2" cx="267.5" cy="228.5" r="1.5"/>
		</g>
		<g class="st5">
			<circle class="st2" cx="129" cy="216" r="1"/>
		</g>
		<g class="st1">
			<circle class="st2" cx="812.8" cy="400" r="1.5"/>
		</g>
		<g class="st3">
			<circle class="st2" cx="1638.7" cy="382.8" r="1.5"/>
		</g>
		<g class="st1">
			<circle class="st2" cx="1292.1" cy="363" r="1.5"/>
		</g>
		<g class="st6">
			<circle class="st2" cx="80.9" cy="343.3" r="1.5"/>
		</g>
		<g class="st1">
			<circle class="st2" cx="674.1" cy="387.8" r="1"/>
		</g>
		<g class="st1">
			<circle class="st2" cx="1506.3" cy="339.8" r="1"/>
		</g>
		<g class="st1">
			<circle class="st2" cx="1153.4" cy="350.8" r="1"/>
		</g>
		<g class="st3">
			<circle class="st2" cx="798.5" cy="106.5" r="1.5"/>
		</g>
		<g class="st3">
			<circle class="st2" cx="1690.7" cy="93.6" r="1.5"/>
		</g>
		<g class="st1">
			<circle class="st2" cx="1277.8" cy="69.5" r="1.5"/>
		</g>
		<g>
			<circle class="st2" cx="66.6" cy="49.9" r="1.5"/>
		</g>
		<g class="st3">
			<circle class="st2" cx="660" cy="94" r="1"/>
		</g>
		<g class="st3">
			<circle class="st2" cx="1558.5" cy="50.3" r="1"/>
		</g>
		<g class="st1">
			<circle class="st2" cx="1139.3" cy="57" r="1"/>
		</g>
		<g class="st3">
			<circle class="st2" cx="422.9" cy="411.8" r="1"/>
		</g>
		<g class="st1">
			<circle class="st7" cx="721.7" cy="315.4" r="1"/>
		</g>
		<g class="st1">
			<circle class="st7" cx="1568.9" cy="279.9" r="1"/>
		</g>
		<g class="st1">
			<circle class="st7" cx="1201" cy="278.4" r="1"/>
		</g>
		<g class="st1">
			<circle class="st2" cx="1165.2" cy="393.9" r="1.5"/>
		</g>
		<g class="st1">
			<circle class="st2" cx="1027.2" cy="381.2" r="1"/>
		</g>
		<g class="st1">
			<circle class="st2" cx="1486.3" cy="290.5" r="1"/>
		</g>
		<g class="st3">
			<circle class="st2" cx="566.5" cy="49.5" r="1.5"/>
		</g>
		<g class="st1">
			<circle class="st2" cx="1045.8" cy="12.5" r="1.5"/>
		</g>
		<g class="st3">
			<circle class="st2" cx="428" cy="37" r="1"/>
		</g>
		<g class="st3">
			<circle class="st2" cx="956.5" cy="82.5" r="1.5"/>
		</g>
		<g class="st1">
			<circle class="st2" cx="230.4" cy="353.8" r="1"/>
		</g>
		<g class="st1">
			<circle class="st2" cx="322.9" cy="199.8" r="1"/>
		</g>
		<g class="st1">
			<circle class="st2" cx="835.9" cy="443.3" r="1"/>
		</g>
		<g class="st3">
			<circle class="st2" cx="1651.5" cy="430.2" r="1"/>
		</g>
		<g class="st1">
			<circle class="st2" cx="1315.2" cy="406.3" r="1"/>
		</g>
		<g class="st3">
			<circle class="st2" cx="330.8" cy="179.3" r="1"/>
		</g>
		<g class="st3">
			<circle class="st2" cx="423.2" cy="25.4" r="1"/>
		</g>
		<g class="st1">
			<circle class="st2" cx="956.7" cy="254" r="1.5"/>
		</g>
		<g class="st1">
			<circle class="st2" cx="1446.2" cy="150.7" r="1.5"/>
		</g>
		<g class="st1">
			<circle class="st2" cx="819" cy="242.7" r="1"/>
		</g>
		<g class="st3">
			<circle class="st2" cx="1680" cy="230.9" r="1"/>
		</g>
		<g class="st1">
			<circle class="st2" cx="1298.3" cy="205.7" r="1"/>
		</g>
		<g class="st5">
			<circle class="st2" cx="87.1" cy="186.1" r="1"/>
		</g>
		<g class="st1">
			<circle class="st2" cx="1014.2" cy="241.9" r="1"/>
		</g>
		<g class="st1">
			<circle class="st2" cx="1504.8" cy="151.8" r="1"/>
		</g>
		<g class="st1">
			<circle class="st2" cx="1273.5" cy="95.5" r="1"/>
		</g>
		<g class="st5">
			<circle class="st2" cx="62.3" cy="75.9" r="1"/>
		</g>
		<g class="st1">
			<circle class="st2" cx="919.5" cy="197.3" r="1.5"/>
		</g>
		<g class="st1">
			<circle class="st2" cx="1398.9" cy="160.3" r="1.5"/>
		</g>
		<g class="st1">
			<circle class="st2" cx="187.6" cy="140.7" r="1.5"/>
		</g>
		<g class="st1">
			<circle class="st2" cx="782.1" cy="184.9" r="1"/>
		</g>
		<g class="st3">
			<circle class="st2" cx="1657.1" cy="166.4" r="1"/>
		</g>
		<g class="st1">
			<circle class="st2" cx="1261.5" cy="147.9" r="1"/>
		</g>
		<g class="st5">
			<circle class="st2" cx="50.3" cy="128.3" r="1"/>
		</g>
		<g class="st1">
			<circle class="st2" cx="233.5" cy="150.5" r="1.5"/>
		</g>
		<g class="st5">
			<circle class="st2" cx="95" cy="138" r="1"/>
		</g>
		<g class="st1">
			<circle class="st2" cx="740.4" cy="355.2" r="1.5"/>
		</g>
		<g class="st1">
			<circle class="st2" cx="1578.2" cy="323" r="1.5"/>
		</g>
		<g class="st1">
			<circle class="st2" cx="1219.7" cy="318.2" r="1.5"/>
		</g>
		<g>
			<circle class="st2" cx="8.5" cy="298.6" r="1.5"/>
		</g>
		<g class="st1">
			<circle class="st2" cx="601.7" cy="343.1" r="1"/>
		</g>
		<g class="st1">
			<circle class="st2" cx="1081" cy="306.1" r="1"/>
		</g>
		<g class="st6">
			<circle class="st2" cx="162.5" cy="249.5" r="1.5"/>
		</g>
		<g class="st5">
			<circle class="st2" cx="24" cy="237" r="1"/>
		</g>
		<g class="st3">
			<circle class="st2" cx="456" cy="406.1" r="1"/>
		</g>
		<g class="st1">
			<circle class="st2" cx="935.3" cy="369.1" r="1"/>
		</g>
		<g class="st1">
			<circle class="st7" cx="754.8" cy="309.8" r="1"/>
		</g>
		<g class="st1">
			<circle class="st7" cx="1602.4" cy="281.9" r="1"/>
		</g>
		<g class="st1">
			<circle class="st7" cx="1234.1" cy="272.8" r="1"/>
		</g>
		<g class="st5">
			<circle class="st7" cx="22.9" cy="253.1" r="1"/>
		</g>
		<g class="st1">
			<circle class="st2" cx="1188.5" cy="370.2" r="1.5"/>
		</g>
		<g class="st1">
			<circle class="st2" cx="1051.1" cy="357.7" r="1"/>
		</g>
		<g class="st1">
			<circle class="st2" cx="1514.9" cy="273" r="1"/>
		</g>
		<g class="st1">
			<circle class="st2" cx="578.8" cy="148.5" r="1.5"/>
		</g>
		<g class="st1">
			<circle class="st2" cx="1058.1" cy="111.5" r="1.5"/>
		</g>
		<g class="st1">
			<circle class="st2" cx="1023" cy="156.8" r="1.5"/>
		</g>
		<g class="st1">
			<circle class="st2" cx="885.5" cy="145.3" r="1"/>
		</g>
		<g class="st1">
			<circle class="st2" cx="1364.9" cy="108.3" r="1"/>
		</g>
		<g class="st5">
			<circle class="st2" cx="153.6" cy="88.7" r="1"/>
		</g>
		<g class="st3">
			<circle class="st2" cx="461.5" cy="70.5" r="1.5"/>
		</g>
		<g class="st3">
			<circle class="st2" cx="940.8" cy="33.5" r="1.5"/>
		</g>
		<g class="st1">
			<circle class="st2" cx="323" cy="58" r="1"/>
		</g>
		<g class="st1">
			<circle class="st2" cx="882.2" cy="159.6" r="1.5"/>
		</g>
		<g class="st1">
			<circle class="st2" cx="1361.5" cy="122.6" r="1.5"/>
		</g>
		<g class="st4">
			<circle class="st2" cx="150.3" cy="103" r="1.5"/>
		</g>
		<g class="st1">
			<circle class="st2" cx="743.5" cy="147.4" r="1"/>
		</g>
		<g class="st1">
			<circle class="st2" cx="1627.8" cy="121.2" r="1"/>
		</g>
		<g class="st1">
			<circle class="st2" cx="1222.8" cy="110.4" r="1"/>
		</g>
		<g class="st5">
			<circle class="st2" cx="11.6" cy="90.8" r="1"/>
		</g>
		<g class="st3">
			<circle class="st2" cx="370.4" cy="76.9" r="1"/>
		</g>
		<g class="st1">
			<circle class="st2" cx="931.3" cy="148.7" r="1.5"/>
		</g>
		<g class="st1">
			<circle class="st2" cx="1410.6" cy="111.7" r="1.5"/>
		</g>
		<g class="st1">
			<circle class="st2" cx="199.4" cy="92.1" r="1.5"/>
		</g>
		<g class="st1">
			<circle class="st2" cx="793.2" cy="136" r="1"/>
		</g>
		<g class="st3">
			<circle class="st2" cx="1678.9" cy="121.2" r="1"/>
		</g>
		<g class="st1">
			<circle class="st2" cx="1272.6" cy="99" r="1"/>
		</g>
		<g class="st5">
			<circle class="st2" cx="61.4" cy="79.4" r="1"/>
		</g>
		<g class="st3">
			<circle class="st2" cx="421.2" cy="380" r="1"/>
		</g>
		<g class="st1">
			<circle class="st7" cx="720.1" cy="283.6" r="1"/>
		</g>
		<g class="st1">
			<circle class="st7" cx="1574.5" cy="248.6" r="1"/>
		</g>
		<g class="st1">
			<circle class="st7" cx="1199.4" cy="246.6" r="1"/>
		</g>
		<g class="st1">
			<circle class="st2" cx="1145.4" cy="367.4" r="1.5"/>
		</g>
		<g class="st1">
			<circle class="st2" cx="1007.7" cy="356" r="1"/>
		</g>
		<g class="st1">
			<circle class="st2" cx="1472.9" cy="261.6" r="1"/>
		</g>
		<g class="st3">
			<circle class="st2" cx="596" cy="108.9" r="1.5"/>
		</g>
		<g class="st1">
			<circle class="st2" cx="1075.3" cy="71.9" r="1.5"/>
		</g>
		<g class="st3">
			<circle class="st2" cx="457.3" cy="96.9" r="1"/>
		</g>
		<g class="st3">
			<circle class="st2" cx="936.6" cy="59.9" r="1"/>
		</g>
		<g class="st1">
			<circle class="st2" cx="1014.5" cy="114.4" r="1.5"/>
		</g>
		<g>
			<circle class="st2" cx="1533.8" cy="27.7" r="1.5"/>
		</g>
		<g class="st3">
			<circle class="st2" cx="875.9" cy="102.8" r="1"/>
		</g>
		<g class="st1">
			<circle class="st2" cx="1355.3" cy="65.8" r="1"/>
		</g>
		<g class="st5">
			<circle class="st2" cx="144.1" cy="46.2" r="1"/>
		</g>
		<g class="st1">
			<circle class="st2" cx="539.6" cy="271.1" r="1.5"/>
		</g>
		<g class="st1">
			<circle class="st2" cx="1019" cy="234.1" r="1.5"/>
		</g>
		<g class="st1">
			<circle class="st7" cx="838.3" cy="175.4" r="1"/>
		</g>
		<g class="st1">
			<circle class="st7" cx="1317.6" cy="138.4" r="1"/>
		</g>
		<g class="st4">
			<circle class="st7" cx="106.4" cy="118.8" r="1"/>
		</g>
		<g class="st3">
			<circle class="st2" cx="401.4" cy="259.7" r="1"/>
		</g>
		<g class="st1">
			<circle class="st7" cx="700.3" cy="163.4" r="1"/>
		</g>
		<g class="st1">
			<circle class="st7" cx="1524.2" cy="533.8" r="1"/>
		</g>
		<g class="st1">
			<circle class="st7" cx="1121.6" cy="533.2" r="1"/>
		</g>
		<g class="st1">
			<circle class="st2" cx="1002.7" cy="686.7" r="1.5"/>
		</g>
		<g class="st1">
			<circle class="st2" cx="1483.7" cy="606.1" r="1.5"/>
		</g>
		<g class="st1">
			<circle class="st2" cx="864.9" cy="675.4" r="1"/>
		</g>
		<g class="st1">
			<circle class="st2" cx="1344.2" cy="638.4" r="1"/>
		</g>
		<g class="st1">
			<circle class="st2" cx="133" cy="618.8" r="1"/>
		</g>
		<g class="st1">
			<circle class="st2" cx="225.5" cy="464.8" r="1"/>
		</g>
		<g class="st1">
			<circle class="st7" cx="600.2" cy="612.3" r="1"/>
		</g>
		<g class="st1">
			<circle class="st7" cx="1473.7" cy="565.4" r="1"/>
		</g>
		<g class="st1">
			<circle class="st7" cx="1079.5" cy="575.3" r="1"/>
		</g>
		<g class="st1">
			<circle class="st2" cx="163.4" cy="696.7" r="1"/>
		</g>
		<g class="st1">
			<circle class="st2" cx="255.9" cy="542.7" r="1"/>
		</g>
		<g class="st1">
			<circle class="st2" cx="232" cy="604" r="1.5"/>
		</g>
		<g class="st1">
			<circle class="st2" cx="1100.4" cy="554.3" r="1.5"/>
		</g>
		<g class="st1">
			<circle class="st2" cx="963" cy="541.9" r="1"/>
		</g>
		<g class="st5">
			<circle class="st2" cx="1477.6" cy="456.1" r="1"/>
		</g>
		<g class="st3">
			<circle class="st2" cx="868.4" cy="497.3" r="1.5"/>
		</g>
		<g class="st1">
			<circle class="st2" cx="1347.8" cy="460.3" r="1.5"/>
		</g>
		<g class="st1">
			<circle class="st2" cx="136.5" cy="440.7" r="1.5"/>
		</g>
		<g class="st3">
			<circle class="st2" cx="731" cy="484.9" r="1"/>
		</g>
		<g class="st3">
			<circle class="st2" cx="1629.8" cy="470.6" r="1"/>
		</g>
		<g class="st1">
			<circle class="st2" cx="1210.4" cy="447.9" r="1"/>
		</g>
		<g class="st5">
			<circle class="st2" cx="-0.8" cy="428.3" r="1"/>
		</g>
		<g class="st1">
			<circle class="st2" cx="197" cy="523.9" r="1"/>
		</g>
		<g class="st1">
			<circle class="st2" cx="663.2" cy="641.5" r="1"/>
		</g>
		<g class="st1">
			<circle class="st2" cx="1528.6" cy="608" r="1"/>
		</g>
		<g class="st1">
			<circle class="st2" cx="1142.6" cy="604.5" r="1"/>
		</g>
		<g class="st3">
			<circle class="st2" cx="375.5" cy="446" r="1.5"/>
		</g>
		<g class="st1">
			<circle class="st2" cx="254.8" cy="522.7" r="1.5"/>
		</g>
		<circle class="st2" cx="854.8" cy="409" r="1.5"/>
		<g class="st1">
			<circle class="st2" cx="645.2" cy="543.9" r="1"/>
		</g>
		<g class="st3">
			<circle class="st2" cx="1532.9" cy="508.9" r="1"/>
		</g>
		<g class="st1">
			<circle class="st2" cx="1124.6" cy="506.9" r="1"/>
		</g>
		<g class="st1">
			<circle class="st2" cx="126" cy="622.9" r="1"/>
		</g>
		<g class="st1">
			<circle class="st2" cx="218.5" cy="468.9" r="1"/>
		</g>
		<g class="st3">
			<circle class="st2" cx="657" cy="500.9" r="1"/>
		</g>
		<g class="st3">
			<circle class="st2" cx="1554.1" cy="469.5" r="1"/>
		</g>
		<g class="st1">
			<circle class="st2" cx="1136.3" cy="463.9" r="1"/>
		</g>
		<g class="st3">
			<circle class="st2" cx="563.5" cy="456.4" r="1.5"/>
		</g>
		<g class="st1">
			<circle class="st2" cx="1042.8" cy="419.4" r="1.5"/>
		</g>
		<g class="st3">
			<circle class="st2" cx="425" cy="443.9" r="1"/>
		</g>
		<g class="st5">
			<circle class="st2" cx="904.3" cy="406.9" r="1"/>
		</g>
		<g class="st3">
			<circle class="st2" cx="943.7" cy="458" r="1.5"/>
		</g>
		<g class="st1">
			<circle class="st2" cx="1477.5" cy="369.9" r="1.5"/>
		</g>
		<g class="st3">
			<circle class="st2" cx="805" cy="445.9" r="1"/>
		</g>
		<g class="st1">
			<circle class="st2" cx="1284.3" cy="408.9" r="1"/>
		</g>
		<g class="st5">
			<circle class="st2" cx="73.1" cy="389.2" r="1"/>
		</g>
		<g class="st3">
			<circle class="st2" cx="406.3" cy="647.6" r="1"/>
		</g>
		<g class="st1">
			<circle class="st2" cx="885.7" cy="610.6" r="1"/>
		</g>
		<g class="st1">
			<circle class="st2" cx="1043.2" cy="635.5" r="1.5"/>
		</g>
		<g class="st1">
			<circle class="st2" cx="905.7" cy="623.9" r="1"/>
		</g>
		<g class="st1">
			<circle class="st2" cx="1403.3" cy="523.1" r="1"/>
		</g>
		<g class="st1">
			<circle class="st2" cx="1165.1" cy="477.5" r="1"/>
		</g>
		<g class="st3">
			<circle class="st2" cx="403.2" cy="670.1" r="1.5"/>
		</g>
		<g class="st1">
			<circle class="st2" cx="882.6" cy="633.1" r="1.5"/>
		</g>
		<g class="st1">
			<circle class="st7" cx="701.9" cy="574.4" r="1"/>
		</g>
		<g class="st3">
			<circle class="st7" cx="1581.3" cy="551.2" r="1"/>
		</g>
		<g class="st1">
			<circle class="st7" cx="1181.2" cy="537.4" r="1"/>
		</g>
		<g class="st1">
			<circle class="st2" cx="265.1" cy="658.7" r="1"/>
		</g>
		<g class="st3">
			<circle class="st2" cx="357.5" cy="504.8" r="1"/>
		</g>
		<g class="st1">
			<circle class="st2" cx="1275.3" cy="676.6" r="1"/>
		</g>
		<g class="st5">
			<circle class="st2" cx="64.1" cy="657" r="1"/>
		</g>
		<g class="st1">
			<circle class="st7" cx="1554.6" cy="702.3" r="1"/>
		</g>
		<g class="st1">
			<circle class="st7" cx="1189.1" cy="690.5" r="1"/>
		</g>
		<g class="st1">
			<circle class="st2" cx="941.9" cy="701.9" r="1"/>
		</g>
		<g class="st1">
			<circle class="st2" cx="1421.1" cy="607.3" r="1"/>
		</g>
		<g class="st1">
			<circle class="st2" cx="1201.3" cy="555.5" r="1"/>
		</g>
		<g class="st1">
			<circle class="st2" cx="709.9" cy="644.9" r="1"/>
		</g>
		<g class="st1">
			<circle class="st2" cx="1573.3" cy="621.8" r="1"/>
		</g>
		<g class="st1">
			<circle class="st2" cx="1189.3" cy="607.9" r="1"/>
		</g>
		<g class="st1">
			<circle class="st2" cx="196.5" cy="653.4" r="1.5"/>
		</g>
		<g class="st5">
			<circle class="st2" cx="58" cy="640.9" r="1"/>
		</g>
		<g class="st1">
			<circle class="st2" cx="218" cy="598.4" r="1.5"/>
		</g>
		<g class="st1">
			<circle class="st7" cx="752.1" cy="675.6" r="1"/>
		</g>
		<g class="st3">
			<circle class="st7" cx="1607.5" cy="661.2" r="1"/>
		</g>
		<g class="st1">
			<circle class="st7" cx="1231.4" cy="638.6" r="1"/>
		</g>
		<g class="st6">
			<circle class="st7" cx="20.2" cy="619" r="1"/>
		</g>
		<g class="st1">
			<circle class="st7" cx="614.1" cy="663.6" r="1"/>
		</g>
		<g class="st1">
			<circle class="st7" cx="1475.7" cy="618.5" r="1"/>
		</g>
		<g class="st1">
			<circle class="st7" cx="1093.4" cy="626.6" r="1"/>
		</g>
		<g class="st1">
			<circle class="st2" cx="1360.4" cy="661.3" r="1"/>
		</g>
		<g class="st1">
			<circle class="st7" cx="666.9" cy="683.4" r="1"/>
		</g>
		<g class="st1">
			<circle class="st7" cx="1522.8" cy="649.7" r="1"/>
		</g>
		<g class="st1">
			<circle class="st7" cx="1146.3" cy="646.4" r="1"/>
		</g>
		<g class="st3">
			<circle class="st2" cx="322.6" cy="613.8" r="1"/>
		</g>
		<g class="st1">
			<circle class="st2" cx="656.9" cy="648.2" r="1.5"/>
		</g>
		<g class="st1">
			<circle class="st2" cx="1520.9" cy="613.1" r="1.5"/>
		</g>
		<g class="st1">
			<circle class="st2" cx="1136.2" cy="611.2" r="1.5"/>
		</g>
		<g class="st1">
			<circle class="st2" cx="519.6" cy="636.2" r="1"/>
		</g>
		<g class="st1">
			<circle class="st2" cx="998.9" cy="599.2" r="1"/>
		</g>
		<g class="st1">
			<circle class="st2" cx="1129.8" cy="562.4" r="1.5"/>
		</g>
		<g class="st1">
			<circle class="st2" cx="992.3" cy="550" r="1"/>
		</g>
		<g class="st5">
			<circle class="st2" cx="1504.3" cy="470.6" r="1"/>
		</g>
		<g class="st5">
			<circle class="st2" cx="1521.5" cy="645.2" r="1"/>
		</g>
		<g class="st1">
			<circle class="st2" cx="225.1" cy="528.9" r="1"/>
		</g>
		<g class="st1">
			<circle class="st2" cx="242.3" cy="703.5" r="1"/>
		</g>
		<g class="st1">
			<circle class="st2" cx="689.2" cy="629.7" r="1"/>
		</g>
		<g class="st1">
			<circle class="st2" cx="1556.6" cy="602.3" r="1"/>
		</g>
		<g class="st1">
			<circle class="st2" cx="1168.6" cy="592.7" r="1"/>
		</g>
		<g class="st1">
			<circle class="st2" cx="1053.4" cy="694.9" r="1.5"/>
		</g>
		<g class="st1">
			<circle class="st2" cx="915.2" cy="683.6" r="1"/>
		</g>
		<g class="st1">
			<circle class="st7" cx="734.7" cy="624.2" r="1"/>
		</g>
		<g class="st3">
			<circle class="st7" cx="1602.1" cy="607.2" r="1"/>
		</g>
		<g class="st1">
			<circle class="st7" cx="1214" cy="587.2" r="1"/>
		</g>
		<g class="st5">
			<circle class="st7" cx="2.8" cy="567.6" r="1"/>
		</g>
		<g class="st1">
			<circle class="st2" cx="971.6" cy="667.1" r="1"/>
		</g>
		<g class="st1">
			<circle class="st2" cx="1457.8" cy="580" r="1"/>
		</g>
		<g class="st1">
			<circle class="st2" cx="1231" cy="520.7" r="1"/>
		</g>
		<g class="st1">
			<circle class="st2" cx="1248.2" cy="695.3" r="1"/>
		</g>
		<g class="st5">
			<circle class="st2" cx="19.8" cy="501" r="1"/>
		</g>
		<g class="st5">
			<circle class="st2" cx="36.9" cy="675.7" r="1"/>
		</g>
		<g class="st1">
			<circle class="st2" cx="620.7" cy="568.7" r="1.5"/>
		</g>
		<g class="st1">
			<circle class="st2" cx="1503.5" cy="527.6" r="1.5"/>
		</g>
		<g class="st1">
			<circle class="st2" cx="1520.7" cy="702.2" r="1.5"/>
		</g>
		<g class="st1">
			<circle class="st2" cx="1100.1" cy="531.7" r="1.5"/>
		</g>
		<g class="st1">
			<circle class="st2" cx="482" cy="556.7" r="1"/>
		</g>
		<g class="st3">
			<circle class="st2" cx="961.4" cy="519.7" r="1"/>
		</g>
		<g class="st3">
			<circle class="st2" cx="978.5" cy="694.4" r="1"/>
		</g>
		<g class="st3">
			<circle class="st2" cx="916.1" cy="506.1" r="1"/>
		</g>
		<g class="st3">
			<circle class="st2" cx="933.3" cy="680.8" r="1"/>
		</g>
		<g class="st1">
			<circle class="st2" cx="1439.9" cy="410.7" r="1"/>
		</g>
		<g class="st1">
			<circle class="st2" cx="1457.1" cy="585.3" r="1"/>
		</g>
		<g class="st1">
			<circle class="st2" cx="554.3" cy="611.7" r="1.5"/>
		</g>
		<g class="st1">
			<circle class="st2" cx="1033.6" cy="574.7" r="1.5"/>
		</g>
		<g class="st1">
			<circle class="st2" cx="1024.6" cy="590.9" r="1.5"/>
		</g>
		<g class="st1">
			<circle class="st2" cx="886.9" cy="579.6" r="1"/>
		</g>
		<g class="st1">
			<circle class="st2" cx="1366.2" cy="542.6" r="1"/>
		</g>
		<g class="st1">
			<circle class="st2" cx="155" cy="523" r="1"/>
		</g>
		<g class="st1">
			<circle class="st2" cx="172.2" cy="697.6" r="1"/>
		</g>
		<g class="st3">
			<circle class="st2" cx="279.9" cy="612.2" r="1.5"/>
		</g>
		<g class="st1">
			<circle class="st2" cx="142.4" cy="600.7" r="1"/>
		</g>
		<g class="st1">
			<circle class="st2" cx="234.9" cy="446.7" r="1"/>
		</g>
		<g class="st1">
			<circle class="st2" cx="542" cy="387" r="1"/>
		</g>
		<g class="st1">
			<circle class="st2" cx="252" cy="621.3" r="1"/>
		</g>
		<g class="st1">
			<circle class="st2" cx="559.2" cy="561.6" r="1"/>
		</g>
		<g class="st1">
			<circle class="st2" cx="1106.6" cy="687.9" r="1.5"/>
		</g>
		<g class="st1">
			<circle class="st2" cx="1585.9" cy="650.9" r="1.5"/>
		</g>
		<g class="st8">
			<circle class="st2" cx="67.5" cy="691" r="1.5"/>
		</g>
		<g class="st8">
			<circle class="st2" cx="374.7" cy="631.3" r="1.5"/>
		</g>
		<g class="st1">
			<circle class="st2" cx="969.3" cy="676.1" r="1"/>
		</g>
		<g class="st1">
			<circle class="st2" cx="1506.3" cy="699.6" r="1"/>
		</g>
		<g class="st1">
			<circle class="st2" cx="1141.4" cy="698.8" r="1"/>
		</g>
		<g class="st1">
			<circle class="st2" cx="1448.6" cy="639.1" r="1"/>
		</g>
		<g class="st5">
			<circle class="st2" cx="237.4" cy="619.4" r="1"/>
		</g>
		<g class="st1">
			<circle class="st2" cx="864.9" cy="537.4" r="1"/>
		</g>
		<g class="st1">
			<circle class="st2" cx="1172.1" cy="477.6" r="1"/>
		</g>
		<g class="st1">
			<circle class="st2" cx="1189.3" cy="652.3" r="1"/>
		</g>
		<g class="st1">
			<circle class="st2" cx="1344.2" cy="500.4" r="1"/>
		</g>
		<g class="st1">
			<circle class="st2" cx="1651.4" cy="440.6" r="1"/>
		</g>
		<g class="st1">
			<circle class="st2" cx="1361.4" cy="675" r="1"/>
		</g>
		<g class="st1">
			<circle class="st2" cx="1668.6" cy="615.3" r="1"/>
		</g>
		<g class="st1">
			<circle class="st2" cx="133" cy="480.8" r="1"/>
		</g>
		<g class="st1">
			<circle class="st2" cx="150.2" cy="655.4" r="1"/>
		</g>
		<g class="st3">
			<circle class="st2" cx="770.3" cy="492.7" r="1.5"/>
		</g>
		<g class="st3">
			<circle class="st2" cx="787.4" cy="667.3" r="1.5"/>
		</g>
		<g class="st3">
			<circle class="st2" cx="1666.3" cy="487" r="1.5"/>
		</g>
		<g class="st3">
			<circle class="st2" cx="1683.5" cy="661.7" r="1.5"/>
		</g>
		<g class="st1">
			<circle class="st2" cx="1249.6" cy="455.7" r="1.5"/>
		</g>
		<g class="st1">
			<circle class="st2" cx="1266.8" cy="630.3" r="1.5"/>
		</g>
		<g>
			<circle class="st2" cx="38.4" cy="436.1" r="1.5"/>
		</g>
		<g>
			<circle class="st2" cx="55.6" cy="610.7" r="1.5"/>
		</g>
		<g class="st3">
			<circle class="st2" cx="632.9" cy="480.4" r="1"/>
		</g>
		<g class="st3">
			<circle class="st2" cx="650.1" cy="655" r="1"/>
		</g>
		<g class="st3">
			<circle class="st2" cx="1535.2" cy="444.2" r="1"/>
		</g>
		<g class="st3">
			<circle class="st2" cx="1552.4" cy="618.8" r="1"/>
		</g>
		<g class="st1">
			<circle class="st2" cx="1112.2" cy="443.4" r="1"/>
		</g>
	</g>
</g>
</svg>
