<svg width="440" height="156" viewBox="0 0 440 156" fill="none" xmlns="http://www.w3.org/2000/svg">
<g opacity="0.3" clip-path="url(#clip0_5421_27873)">
<path d="M235.113 13.6799H245.253L252.472 67.6629H242.55L237.964 32.9307L225.422 67.6629H216.332L203.784 32.9307L199.198 67.6629H188.757L195.969 13.6799H206.116L220.611 52.0277L235.113 13.6799Z" fill="#ACACC6"/>
<path d="M309.431 67.6629H299.06L294.704 56.6112H272.17L267.808 67.6629H257.245L278.511 13.6799H288.196L309.431 67.6629ZM276.225 46.162H290.554L283.437 27.969L276.225 46.162Z" fill="#ACACC6"/>
<path d="M330.767 13.6801C333.138 13.6575 335.492 14.0658 337.717 14.8853C339.777 15.6471 341.666 16.8082 343.277 18.302C344.866 19.7957 346.13 21.6002 346.992 23.6036C347.923 25.789 348.385 28.1453 348.35 30.5205C348.375 32.8397 347.94 35.1407 347.069 37.2901C346.254 39.2919 345.025 41.0986 343.463 42.5916C341.858 44.0993 339.971 45.2736 337.909 46.0468C335.657 46.8907 333.268 47.3123 330.863 47.2904H325.143V67.663H315.298V13.6801H330.767ZM325.137 24.2831V36.6875H332.266C333.911 36.7299 335.505 36.1217 336.705 34.9951C337.309 34.4194 337.782 33.7212 338.094 32.9472C338.405 32.1732 338.548 31.3414 338.512 30.5077C338.53 29.6901 338.386 28.877 338.088 28.1155C337.79 27.354 337.344 26.6594 336.776 26.0717C336.196 25.4737 335.497 25.0043 334.725 24.6939C333.952 24.3836 333.124 24.2392 332.292 24.2703L325.137 24.2831Z" fill="#ACACC6"/>
<path d="M389.596 66.349C386.4 67.7607 382.945 68.4898 379.452 68.4898C375.959 68.4898 372.505 67.7607 369.309 66.349C366.147 64.9479 363.279 62.9572 360.86 60.4832C355.727 55.1676 352.857 48.0641 352.857 40.6715C352.857 33.2789 355.727 26.1754 360.86 20.8598C363.279 18.3858 366.147 16.3952 369.309 14.9942C372.505 13.5824 375.959 12.8533 379.452 12.8533C382.945 12.8533 386.4 13.5824 389.596 14.9942C392.76 16.3951 395.629 18.3856 398.051 20.8598C403.175 26.18 406.039 33.2818 406.039 40.6715C406.039 48.0612 403.175 55.163 398.051 60.4832C395.629 62.9574 392.76 64.9481 389.596 66.349ZM387.603 20.7829C382.382 18.6291 376.522 18.6291 371.301 20.7829C368.832 21.8263 366.596 23.3518 364.723 25.2703C362.835 27.229 361.355 29.5429 360.367 32.0782C358.273 37.6264 358.273 43.7487 360.367 49.2969C361.357 51.8295 362.837 54.141 364.723 56.0984C366.594 58.0189 368.831 59.5448 371.301 60.5857C376.522 62.7395 382.382 62.7395 387.603 60.5857C390.073 59.5431 392.309 58.0175 394.182 56.0984C396.066 54.1406 397.544 51.8291 398.531 49.2969C400.64 43.7515 400.64 37.6236 398.531 32.0782C397.546 29.5433 396.067 27.2293 394.182 25.2703C392.307 23.3532 390.071 21.8278 387.603 20.7829Z" fill="#ACACC6"/>
<path d="M413.41 13.6799H440V19.9174H419.303V36.7642H438.52V43.0016H419.303V67.6629H413.442L413.41 13.6799Z" fill="#ACACC6"/>
<path d="M188.008 84.4778H219.106V92.523L200.101 127.781H219.26V138.454H188.008V130.409L206.712 95.1514H188.008V84.4778Z" fill="#ACACC6"/>
<path d="M241.148 85.5676C244.523 84.1358 248.153 83.4072 251.819 83.4264C255.479 83.4062 259.106 84.1212 262.484 85.5291C265.783 86.89 268.791 88.8676 271.35 91.3562C273.936 93.8815 275.994 96.8978 277.403 100.228C278.9 103.786 279.652 107.613 279.613 111.472C279.652 115.19 278.941 118.878 277.521 122.314C276.101 125.75 274.002 128.863 271.35 131.467C268.793 133.977 265.785 135.98 262.484 137.371C259.105 138.784 255.479 139.512 251.816 139.512C248.153 139.512 244.527 138.784 241.148 137.371C237.849 135.977 234.841 133.974 232.282 131.467C229.641 128.85 227.545 125.734 226.114 122.301C224.684 118.868 223.947 115.186 223.947 111.466C223.947 107.746 224.684 104.064 226.114 100.631C227.545 97.1978 229.641 94.0826 232.282 91.4653C234.841 88.96 237.849 86.9593 241.148 85.5676ZM258.807 95.3372C254.294 93.6875 249.344 93.6875 244.831 95.3372C242.738 96.1288 240.824 97.3296 239.2 98.8694C237.58 100.42 236.299 102.291 235.44 104.363C233.638 108.927 233.638 114.005 235.44 118.569C236.295 120.643 237.576 122.515 239.2 124.063C240.824 125.604 242.738 126.807 244.831 127.601C249.344 129.251 254.294 129.251 258.807 127.601C260.899 126.82 262.806 125.615 264.409 124.06C266.011 122.506 267.275 120.636 268.121 118.569C269.923 114.005 269.923 108.927 268.121 104.363C267.276 102.296 266.013 100.427 264.409 98.8734C262.806 97.3198 260.899 96.1157 258.807 95.3372Z" fill="#ACACC6"/>
<path d="M288.151 84.4778H297.997L323.093 121.095V84.4778H332.926V138.461H323.017L297.997 102.068V138.461H288.151V84.4778Z" fill="#ACACC6"/>
<path d="M345 84.4778H374.754V95.1514H354.845V105.376H372.505V116.056H354.845V127.787H374.754V138.461H345V84.4778Z" fill="#ACACC6"/>
<path d="M410.503 99.9656C408.895 98.1559 406.933 96.6962 404.738 95.677C402.717 94.6746 400.498 94.1357 398.243 94.0999C397.651 94.1004 397.059 94.1497 396.475 94.2474C395.922 94.3457 395.382 94.5092 394.867 94.7346C394.385 94.9476 393.969 95.2864 393.663 95.7154C393.353 96.1697 393.194 96.7104 393.208 97.2604C393.232 97.7336 393.351 98.1971 393.558 98.6233C393.765 99.0495 394.056 99.4297 394.413 99.7412C395.177 100.509 395.98 101.237 396.821 101.921C398.922 103.63 400.786 105.126 402.413 106.408C404.04 107.69 405.582 108.983 407.038 110.286C408.064 111.17 409.041 112.11 409.965 113.101C410.86 114.071 411.654 115.13 412.335 116.261C413.019 117.418 413.561 118.654 413.949 119.941C414.359 121.348 414.562 122.808 414.551 124.274C414.579 126.426 414.169 128.562 413.347 130.55C412.579 132.378 411.425 134.018 409.965 135.358C408.459 136.722 406.698 137.772 404.783 138.448C402.655 139.182 400.417 139.542 398.166 139.512C396.193 139.524 394.229 139.246 392.337 138.685C390.605 138.176 388.943 137.457 387.386 136.544C385.997 135.74 384.73 134.74 383.625 133.576C382.697 132.614 381.946 131.494 381.409 130.268L384.337 120.941C385.153 122.111 386.115 123.173 387.2 124.101C388.294 125.054 389.488 125.886 390.761 126.582C392.013 127.275 393.336 127.83 394.707 128.236C395.999 128.629 397.341 128.833 398.691 128.839C400.158 128.891 401.608 128.512 402.861 127.749C403.413 127.39 403.86 126.891 404.156 126.304C404.452 125.716 404.586 125.06 404.546 124.402C404.561 123.292 404.207 122.207 403.54 121.319C402.684 120.236 401.711 119.252 400.638 118.383C398.076 116.28 395.785 114.415 393.765 112.787C391.888 111.297 390.118 109.678 388.468 107.94C387.095 106.45 385.876 104.824 384.83 103.087C383.718 101.185 383.159 99.0088 383.216 96.8051C383.175 94.8348 383.585 92.8813 384.413 91.0934C385.167 89.4869 386.259 88.0631 387.616 86.9202C389.018 85.7656 390.623 84.8849 392.35 84.3239C394.211 83.7157 396.157 83.4127 398.115 83.4265C399.702 83.4202 401.282 83.6359 402.81 84.0675C404.218 84.4701 405.577 85.0247 406.865 85.7215C408.037 86.3627 409.135 87.1323 410.138 88.0163C411.008 88.7817 411.765 89.6667 412.386 90.6447L410.503 99.9656Z" fill="#ACACC6"/>
<path d="M93.0274 26.2446C95.9884 26.2446 98.3888 23.7878 98.3888 20.7572C98.3888 17.7266 95.9884 15.2698 93.0274 15.2698C90.0664 15.2698 87.666 17.7266 87.666 20.7572C87.666 23.7878 90.0664 26.2446 93.0274 26.2446Z" fill="#ACACC6"/>
<path d="M58.8859 139.102C63.0745 139.102 66.47 135.629 66.47 131.345C66.47 127.061 63.0745 123.588 58.8859 123.588C54.6973 123.588 51.3018 127.061 51.3018 131.345C51.3018 135.629 54.6973 139.102 58.8859 139.102Z" fill="#ACACC6"/>
<path d="M75.9437 156C80.4117 156 84.0338 152.298 84.0338 147.731C84.0338 143.163 80.4117 139.461 75.9437 139.461C71.4756 139.461 67.8535 143.163 67.8535 147.731C67.8535 152.298 71.4756 156 75.9437 156Z" fill="#ACACC6"/>
<path d="M132.431 53.2747C135.449 50.1819 135.443 45.2785 132.419 42.3226C129.394 39.3667 124.496 39.4776 121.478 42.5704C118.46 45.6632 118.466 50.5666 121.49 53.5226C124.515 56.4785 129.413 56.3675 132.431 53.2747Z" fill="#ACACC6"/>
<path d="M98.8947 89.7858C102.698 89.7858 105.781 86.7004 105.781 82.8945C105.781 79.0885 102.698 76.0032 98.8947 76.0032C95.0917 76.0032 92.0088 79.0885 92.0088 82.8945C92.0088 86.7004 95.0917 89.7858 98.8947 89.7858Z" fill="#ACACC6"/>
<path d="M82.5094 60.5024C86.1001 60.5024 89.011 57.5892 89.011 53.9957C89.011 50.4022 86.1001 47.489 82.5094 47.489C78.9187 47.489 76.0078 50.4022 76.0078 53.9957C76.0078 57.5892 78.9187 60.5024 82.5094 60.5024Z" fill="#ACACC6"/>
<path d="M65.2658 62.7014C68.8035 62.7014 71.6713 59.8313 71.6713 56.2909C71.6713 52.7505 68.8035 49.8804 65.2658 49.8804C61.7282 49.8804 58.8604 52.7505 58.8604 56.2909C58.8604 59.8313 61.7282 62.7014 65.2658 62.7014Z" fill="#ACACC6"/>
<path d="M54.8056 76.4583C58.4741 76.4583 61.4481 73.482 61.4481 69.8106C61.4481 66.1391 58.4741 63.1628 54.8056 63.1628C51.137 63.1628 48.1631 66.1391 48.1631 69.8106C48.1631 73.482 51.137 76.4583 54.8056 76.4583Z" fill="#ACACC6"/>
<path d="M56.567 93.5167C60.2462 93.5167 63.2287 90.5318 63.2287 86.8498C63.2287 83.1677 60.2462 80.1829 56.567 80.1829C52.8878 80.1829 49.9053 83.1677 49.9053 86.8498C49.9053 90.5318 52.8878 93.5167 56.567 93.5167Z" fill="#ACACC6"/>
<path d="M70.3385 105.376C74.0176 105.376 77.0002 102.391 77.0002 98.7092C77.0002 95.0271 74.0176 92.0422 70.3385 92.0422C66.6593 92.0422 63.6768 95.0271 63.6768 98.7092C63.6768 102.391 66.6593 105.376 70.3385 105.376Z" fill="#ACACC6"/>
<path d="M87.9029 103.241C91.5821 103.241 94.5646 100.256 94.5646 96.5744C94.5646 92.8924 91.5821 89.9075 87.9029 89.9075C84.2238 89.9075 81.2412 92.8924 81.2412 96.5744C81.2412 100.256 84.2238 103.241 87.9029 103.241Z" fill="#ACACC6"/>
<path d="M76.6928 83.2405C80.478 83.2405 83.5466 80.1695 83.5466 76.3812C83.5466 72.593 80.478 69.522 76.6928 69.522C72.9075 69.522 69.8389 72.593 69.8389 76.3812C69.8389 80.1695 72.9075 83.2405 76.6928 83.2405Z" fill="#ACACC6"/>
<path d="M111.065 107.87C114.999 107.87 118.188 104.678 118.188 100.741C118.188 96.8043 114.999 93.6128 111.065 93.6128C107.131 93.6128 103.942 96.8043 103.942 100.741C103.942 104.678 107.131 107.87 111.065 107.87Z" fill="#ACACC6"/>
<path d="M132.178 98.8823C136.416 98.8823 139.851 95.444 139.851 91.2025C139.851 86.9611 136.416 83.5227 132.178 83.5227C127.94 83.5227 124.504 86.9611 124.504 91.2025C124.504 95.444 127.94 98.8823 132.178 98.8823Z" fill="#ACACC6"/>
<path d="M148.14 81.9456C152.64 81.9456 156.288 78.2948 156.288 73.7914C156.288 69.288 152.64 65.6372 148.14 65.6372C143.64 65.6372 139.992 69.288 139.992 73.7914C139.992 78.2948 143.64 81.9456 148.14 81.9456Z" fill="#ACACC6"/>
<path d="M118.463 76.9199C122.549 76.9199 125.861 73.6049 125.861 69.5157C125.861 65.4265 122.549 62.1116 118.463 62.1116C114.377 62.1116 111.064 65.4265 111.064 69.5157C111.064 73.6049 114.377 76.9199 118.463 76.9199Z" fill="#ACACC6"/>
<path d="M101.886 47.7903C105.021 47.7903 107.561 45.2475 107.561 42.1106C107.561 38.9738 105.021 36.4309 101.886 36.4309C98.7518 36.4309 96.2109 38.9738 96.2109 42.1106C96.2109 45.2475 98.7518 47.7903 101.886 47.7903Z" fill="#ACACC6"/>
<path d="M69.8579 40.5787C72.9923 40.5787 75.5332 38.0358 75.5332 34.899C75.5332 31.7621 72.9923 29.2192 69.8579 29.2192C66.7235 29.2192 64.1826 31.7621 64.1826 34.899C64.1826 38.0358 66.7235 40.5787 69.8579 40.5787Z" fill="#ACACC6"/>
<path d="M43.0125 57.0728C46.2565 57.0728 48.8864 54.4409 48.8864 51.1944C48.8864 47.9478 46.2565 45.3159 43.0125 45.3159C39.7685 45.3159 37.1387 47.9478 37.1387 51.1944C37.1387 54.4409 39.7685 57.0728 43.0125 57.0728Z" fill="#ACACC6"/>
<path d="M35.2559 87.8049C38.6344 87.8049 41.3732 85.0639 41.3732 81.6828C41.3732 78.3017 38.6344 75.5608 35.2559 75.5608C31.8775 75.5608 29.1387 78.3017 29.1387 81.6828C29.1387 85.0639 31.8775 87.8049 35.2559 87.8049Z" fill="#ACACC6"/>
<path d="M25.3849 109.229C28.7067 109.229 31.3996 106.534 31.3996 103.209C31.3996 99.885 28.7067 97.1899 25.3849 97.1899C22.063 97.1899 19.3701 99.885 19.3701 103.209C19.3701 106.534 22.063 109.229 25.3849 109.229Z" fill="#ACACC6"/>
<path d="M20.978 65.5156C24.2327 65.5156 26.8711 62.8751 26.8711 59.6179C26.8711 56.3607 24.2327 53.7202 20.978 53.7202C17.7234 53.7202 15.085 56.3607 15.085 59.6179C15.085 62.8751 17.7234 65.5156 20.978 65.5156Z" fill="#ACACC6"/>
<path d="M50.9626 116.261C54.8576 116.261 58.0151 113.098 58.0151 109.197C58.0151 105.295 54.8576 102.132 50.9626 102.132C47.0676 102.132 43.9102 105.295 43.9102 109.197C43.9102 113.098 47.0676 116.261 50.9626 116.261Z" fill="#ACACC6"/>
<path d="M83.9509 124.915C87.8458 124.915 91.0033 121.753 91.0033 117.851C91.0033 113.949 87.8458 110.787 83.9509 110.787C80.0559 110.787 76.8984 113.949 76.8984 117.851C76.8984 121.753 80.0559 124.915 83.9509 124.915Z" fill="#ACACC6"/>
<path d="M105.812 133.339C109.972 133.339 113.345 129.958 113.345 125.787C113.345 121.617 109.972 118.236 105.812 118.236C101.652 118.236 98.2793 121.617 98.2793 125.787C98.2793 129.958 101.652 133.339 105.812 133.339Z" fill="#ACACC6"/>
<path d="M129.353 132.544C133.828 132.544 137.456 128.907 137.456 124.422C137.456 119.936 133.828 116.3 129.353 116.3C124.878 116.3 121.25 119.936 121.25 124.422C121.25 128.907 124.878 132.544 129.353 132.544Z" fill="#ACACC6"/>
<path d="M126.188 32.5013C130.663 32.5013 134.291 28.8649 134.291 24.3792C134.291 19.8935 130.663 16.2571 126.188 16.2571C121.713 16.2571 118.085 19.8935 118.085 24.3792C118.085 28.8649 121.713 32.5013 126.188 32.5013Z" fill="#ACACC6"/>
<path d="M75.9566 8.8978C78.4082 8.8978 80.3956 6.90596 80.3956 4.4489C80.3956 1.99184 78.4082 0 75.9566 0C73.505 0 71.5176 1.99184 71.5176 4.4489C71.5176 6.90596 73.505 8.8978 75.9566 8.8978Z" fill="#ACACC6"/>
<path d="M48.2075 30.9115C51.1897 30.9115 53.6073 28.4892 53.6073 25.5011C53.6073 22.5129 51.1897 20.0906 48.2075 20.0906C45.2252 20.0906 42.8076 22.5129 42.8076 25.5011C42.8076 28.4892 45.2252 30.9115 48.2075 30.9115Z" fill="#ACACC6"/>
<path d="M24.5591 31.2896C27.0107 31.2896 28.9981 29.2978 28.9981 26.8407C28.9981 24.3837 27.0107 22.3918 24.5591 22.3918C22.1075 22.3918 20.1201 24.3837 20.1201 26.8407C20.1201 29.2978 22.1075 31.2896 24.5591 31.2896Z" fill="#ACACC6"/>
<path d="M5.02191 82.2469C7.79543 82.2469 10.0438 79.9939 10.0438 77.2146C10.0438 74.4354 7.79543 72.1824 5.02191 72.1824C2.24839 72.1824 0 74.4354 0 77.2146C0 79.9939 2.24839 82.2469 5.02191 82.2469Z" fill="#ACACC6"/>
<path d="M26.0766 131.845C28.8501 131.845 31.0985 129.592 31.0985 126.813C31.0985 124.034 28.8501 121.781 26.0766 121.781C23.3031 121.781 21.0547 124.034 21.0547 126.813C21.0547 129.592 23.3031 131.845 26.0766 131.845Z" fill="#ACACC6"/>
<path d="M97.3503 71.8362C101.005 71.8362 103.967 68.8714 103.967 65.2141C103.967 61.5568 101.005 58.592 97.3503 58.592C93.6959 58.592 90.7334 61.5568 90.7334 65.2141C90.7334 68.8714 93.6959 71.8362 97.3503 71.8362Z" fill="#ACACC6"/>
</g>
<defs>
<clipPath id="clip0_5421_27873">
<rect width="440" height="156" fill="white"/>
</clipPath>
</defs>
</svg>
